<svg width="30" height="30" viewBox="0 0 118 107" fill="none" xmlns="http://www.w3.org/2000/svg">
<path d="M2 5.99976C22.436 22.5278 36.6129 37.6081 47.313 56.4997C50.266 21.0065 39.021 10.9605 2 5.99976Z" fill="#6EB486"/>
<path d="M2 5.99976C22.436 22.5278 36.6129 37.6081 47.313 56.4997C14.5 53 2.00001 42 2 5.99976Z" fill="#3C945A"/>
<path d="M2 5.99976C22.436 22.5278 36.6129 37.6081 47.313 56.4997M2 5.99976C2.00001 42 14.5 53 47.313 56.4997M2 5.99976C39.021 10.9605 50.266 21.0065 47.313 56.4997M64 105.5C57.2758 71.8113 58.4164 76.1035 47.313 56.4997" stroke="black" stroke-width="3" stroke-linecap="round"/>
<path d="M115.674 2C95.238 18.5281 83.2169 33.6083 72.5168 52.5C69.5638 17.0067 78.653 6.96078 115.674 2Z" fill="#6EB486"/>
<path d="M115.674 2C95.238 18.5281 83.2169 33.6083 72.5168 52.5C101.5 49 111.5 40 115.674 2Z" fill="#3C945A"/>
<path d="M115.674 2C95.238 18.5281 83.2169 33.6083 72.5168 52.5M115.674 2C111.5 40 101.5 49 72.5168 52.5M115.674 2C78.653 6.96078 69.5638 17.0067 72.5168 52.5" stroke="black" stroke-width="3"/>
<path d="M73 51.0026C74.0371 49.69 57 68.5025 59 82.0026" stroke="black" stroke-width="3"/>
</svg>
