<svg width="30" height="30" viewBox="0 0 30 30" fill="none" xmlns="http://www.w3.org/2000/svg">
<mask id="mask0_19_53" style="mask-type:alpha" maskUnits="userSpaceOnUse" x="0" y="0" width="30" height="30">
<rect width="30" height="30" fill="#D9D9D9"/>
</mask>
<g mask="url(#mask0_19_53)">
<path d="M8.69702 6.62051L3.41254 9.25141C3.41254 9.25141 1.7942 11.3846 2.47479 11.8823C6.2563 9.74485 8.39638 9.24615 12.2467 9.59615C12.7678 7.40701 12.219 6.35977 11.7038 4.43046C10.3047 4.86882 9.40844 6.2648 8.69702 6.62051Z" fill="#FF8E26"/>
<path d="M12.2467 9.59615C8.39638 9.24615 6.2563 9.74485 2.47479 11.8823C6.22911 11.4443 8.36321 11.4062 12.2467 11.8823V9.59615Z" fill="#FF8E26"/>
<path d="M12.2467 9.59615V11.8823C20.8881 15.6474 20.8091 31.0123 13.9588 45.9054C7.10855 60.7985 10.5948 75.8391 19.5965 84.993C28.5981 94.147 51.9199 95.3674 57.9324 92.223C63.9449 89.0787 71.8386 91.0659 73.7178 92.223C75.5971 93.3802 80.2731 93.1269 81.6105 93.3802C82.9418 92.5017 82.1776 91.6299 77.4763 89.2459C80.775 90.1364 81.6584 90.1186 81.6105 89.2459C81.9318 87.8582 78.6417 85.3068 73.7178 82.8566C75.5525 83.1034 76.1075 82.749 76.7246 81.7291C72.9804 77.5861 72.173 77.5385 69.9594 76.0914C60.8811 66.1711 56.4291 61.3644 44.0263 53.9167C28.2409 46.3307 26.6918 43.6997 28.6167 28.2903C29.6496 20.0216 33.1268 -5.09071 11.7038 4.43046C12.219 6.35977 12.7678 7.40701 12.2467 9.59615Z" fill="#FFFCFA"/>
<path d="M11.7038 4.43046C12.219 6.35977 12.7678 7.40701 12.2467 9.59615M11.7038 4.43046C11.6233 4.44877 11.783 4.40565 11.7038 4.43046ZM11.7038 4.43046C10.3047 4.86882 9.40844 6.2648 8.69702 6.62051L3.41254 9.25141C3.41254 9.25141 1.7942 11.3846 2.47479 11.8823M11.7038 4.43046C33.1268 -5.09071 29.6496 20.0216 28.6167 28.2903C26.6918 43.6997 28.2409 46.3307 44.0263 53.9167C56.4291 61.3644 60.8811 66.1711 69.9594 76.0914C72.173 77.5385 72.9804 77.5861 76.7246 81.7291C76.1075 82.749 75.5525 83.1034 73.7178 82.8566C78.6417 85.3068 81.9318 87.8582 81.6105 89.2459C81.6584 90.1186 80.775 90.1364 77.4763 89.2459C82.1776 91.6299 82.9418 92.5017 81.6105 93.3802C80.2731 93.1269 75.5971 93.3802 73.7178 92.223C71.8386 91.0659 63.9449 89.0787 57.9324 92.223C51.9199 95.3674 28.5981 94.147 19.5965 84.993C10.5948 75.8391 7.10855 60.7985 13.9588 45.9054C20.8091 31.0123 20.8881 15.6474 12.2467 11.8823M2.47479 11.8823C6.2563 9.74485 8.39638 9.24615 12.2467 9.59615M2.47479 11.8823C6.22911 11.4443 8.36321 11.4062 12.2467 11.8823M12.2467 9.59615V11.8823" stroke="black" stroke-width="0.5"/>
<ellipse cx="13.5" cy="6" rx="0.5" ry="1" fill="black"/>
<ellipse cx="16.5" cy="7" rx="0.5" ry="1" fill="black"/>
</g>
</svg>
