<svg width="141" height="26" viewBox="0 0 141 26" fill="none" xmlns="http://www.w3.org/2000/svg">
<path d="M13.32 7.288C12.936 6.584 12.408 6.048 11.736 5.68C11.064 5.312 10.28 5.128 9.384 5.128C8.392 5.128 7.512 5.352 6.744 5.8C5.976 6.248 5.376 6.888 4.944 7.72C4.512 8.552 4.296 9.512 4.296 10.6C4.296 11.72 4.512 12.696 4.944 13.528C5.392 14.36 6.008 15 6.792 15.448C7.576 15.896 8.488 16.12 9.528 16.12C10.808 16.12 11.856 15.784 12.672 15.112C13.488 14.424 14.024 13.472 14.28 12.256H8.52V9.688H17.592V12.616C17.368 13.784 16.888 14.864 16.152 15.856C15.416 16.848 14.464 17.648 13.296 18.256C12.144 18.848 10.848 19.144 9.408 19.144C7.792 19.144 6.328 18.784 5.016 18.064C3.72 17.328 2.696 16.312 1.944 15.016C1.208 13.72 0.84 12.248 0.84 10.6C0.84 8.952 1.208 7.48 1.944 6.184C2.696 4.872 3.72 3.856 5.016 3.136C6.328 2.4 7.784 2.032 9.384 2.032C11.272 2.032 12.912 2.496 14.304 3.424C15.696 4.336 16.656 5.624 17.184 7.288H13.32ZM23.4379 1.24V19H20.0779V1.24H23.4379ZM32.6616 19.216C31.3816 19.216 30.2296 18.936 29.2056 18.376C28.1816 17.8 27.3736 16.992 26.7816 15.952C26.2056 14.912 25.9176 13.712 25.9176 12.352C25.9176 10.992 26.2136 9.792 26.8056 8.752C27.4136 7.712 28.2376 6.912 29.2776 6.352C30.3176 5.776 31.4776 5.488 32.7576 5.488C34.0376 5.488 35.1976 5.776 36.2376 6.352C37.2776 6.912 38.0936 7.712 38.6856 8.752C39.2936 9.792 39.5976 10.992 39.5976 12.352C39.5976 13.712 39.2856 14.912 38.6616 15.952C38.0536 16.992 37.2216 17.8 36.1656 18.376C35.1256 18.936 33.9576 19.216 32.6616 19.216ZM32.6616 16.288C33.2696 16.288 33.8376 16.144 34.3656 15.856C34.9096 15.552 35.3416 15.104 35.6616 14.512C35.9816 13.92 36.1416 13.2 36.1416 12.352C36.1416 11.088 35.8056 10.12 35.1336 9.448C34.4776 8.76 33.6696 8.416 32.7096 8.416C31.7496 8.416 30.9416 8.76 30.2856 9.448C29.6456 10.12 29.3256 11.088 29.3256 12.352C29.3256 13.616 29.6376 14.592 30.2616 15.28C30.9016 15.952 31.7016 16.288 32.6616 16.288ZM45.4223 7.768C45.8543 7.064 46.4143 6.512 47.1023 6.112C47.8063 5.712 48.6063 5.512 49.5023 5.512V9.04H48.6143C47.5583 9.04 46.7583 9.288 46.2143 9.784C45.6863 10.28 45.4223 11.144 45.4223 12.376V19H42.0623V5.704H45.4223V7.768ZM53.4694 4.12C52.8774 4.12 52.3814 3.936 51.9814 3.568C51.5974 3.184 51.4054 2.712 51.4054 2.152C51.4054 1.592 51.5974 1.128 51.9814 0.759999C52.3814 0.375999 52.8774 0.183999 53.4694 0.183999C54.0614 0.183999 54.5494 0.375999 54.9334 0.759999C55.3334 1.128 55.5334 1.592 55.5334 2.152C55.5334 2.712 55.3334 3.184 54.9334 3.568C54.5494 3.936 54.0614 4.12 53.4694 4.12ZM55.1254 5.704V19H51.7654V5.704H55.1254ZM57.5811 12.304C57.5811 10.96 57.8451 9.768 58.3731 8.728C58.9171 7.688 59.6451 6.888 60.5571 6.328C61.4851 5.768 62.5171 5.488 63.6531 5.488C64.6451 5.488 65.5091 5.688 66.2451 6.088C66.9971 6.488 67.5971 6.992 68.0451 7.6V5.704H71.4291V19H68.0451V17.056C67.6131 17.68 67.0131 18.2 66.2451 18.616C65.4931 19.016 64.6211 19.216 63.6291 19.216C62.5091 19.216 61.4851 18.928 60.5571 18.352C59.6451 17.776 58.9171 16.968 58.3731 15.928C57.8451 14.872 57.5811 13.664 57.5811 12.304ZM68.0451 12.352C68.0451 11.536 67.8851 10.84 67.5651 10.264C67.2451 9.672 66.8131 9.224 66.2691 8.92C65.7251 8.6 65.1411 8.44 64.5171 8.44C63.8931 8.44 63.3171 8.592 62.7891 8.896C62.2611 9.2 61.8291 9.648 61.4931 10.24C61.1731 10.816 61.0131 11.504 61.0131 12.304C61.0131 13.104 61.1731 13.808 61.4931 14.416C61.8291 15.008 62.2611 15.464 62.7891 15.784C63.3331 16.104 63.9091 16.264 64.5171 16.264C65.1411 16.264 65.7251 16.112 66.2691 15.808C66.8131 15.488 67.2451 15.04 67.5651 14.464C67.8851 13.872 68.0451 13.168 68.0451 12.352ZM93.7494 2.248L88.0854 13.168V19H84.7254V13.168L79.0374 2.248H82.8294L86.4294 9.904L90.0054 2.248H93.7494ZM94.8232 12.304C94.8232 10.96 95.0872 9.768 95.6152 8.728C96.1593 7.688 96.8873 6.888 97.7993 6.328C98.7273 5.768 99.7593 5.488 100.895 5.488C101.887 5.488 102.751 5.688 103.487 6.088C104.239 6.488 104.839 6.992 105.287 7.6V5.704H108.671V19H105.287V17.056C104.855 17.68 104.255 18.2 103.487 18.616C102.735 19.016 101.863 19.216 100.871 19.216C99.7513 19.216 98.7273 18.928 97.7993 18.352C96.8873 17.776 96.1593 16.968 95.6152 15.928C95.0872 14.872 94.8232 13.664 94.8232 12.304ZM105.287 12.352C105.287 11.536 105.127 10.84 104.807 10.264C104.487 9.672 104.055 9.224 103.511 8.92C102.967 8.6 102.383 8.44 101.759 8.44C101.135 8.44 100.559 8.592 100.031 8.896C99.5033 9.2 99.0713 9.648 98.7353 10.24C98.4153 10.816 98.2553 11.504 98.2553 12.304C98.2553 13.104 98.4153 13.808 98.7353 14.416C99.0713 15.008 99.5033 15.464 100.031 15.784C100.575 16.104 101.151 16.264 101.759 16.264C102.383 16.264 102.967 16.112 103.511 15.808C104.055 15.488 104.487 15.04 104.807 14.464C105.127 13.872 105.287 13.168 105.287 12.352ZM119.321 5.512C120.905 5.512 122.185 6.016 123.161 7.024C124.137 8.016 124.625 9.408 124.625 11.2V19H121.265V11.656C121.265 10.6 121.001 9.792 120.473 9.232C119.945 8.656 119.225 8.368 118.313 8.368C117.385 8.368 116.649 8.656 116.105 9.232C115.577 9.792 115.313 10.6 115.313 11.656V19H111.953V5.704H115.313V7.36C115.761 6.784 116.329 6.336 117.017 6.016C117.721 5.68 118.489 5.512 119.321 5.512ZM133.028 5.488C134.02 5.488 134.892 5.688 135.644 6.088C136.396 6.472 136.988 6.976 137.42 7.6V5.704H140.804V19.096C140.804 20.328 140.556 21.424 140.06 22.384C139.564 23.36 138.82 24.128 137.828 24.688C136.836 25.264 135.636 25.552 134.228 25.552C132.34 25.552 130.788 25.112 129.572 24.232C128.372 23.352 127.692 22.152 127.532 20.632H130.868C131.044 21.24 131.42 21.72 131.996 22.072C132.588 22.44 133.3 22.624 134.132 22.624C135.108 22.624 135.9 22.328 136.508 21.736C137.116 21.16 137.42 20.28 137.42 19.096V17.032C136.988 17.656 136.388 18.176 135.62 18.592C134.868 19.008 134.004 19.216 133.028 19.216C131.908 19.216 130.884 18.928 129.956 18.352C129.028 17.776 128.292 16.968 127.748 15.928C127.22 14.872 126.956 13.664 126.956 12.304C126.956 10.96 127.22 9.768 127.748 8.728C128.292 7.688 129.02 6.888 129.932 6.328C130.86 5.768 131.892 5.488 133.028 5.488ZM137.42 12.352C137.42 11.536 137.26 10.84 136.94 10.264C136.62 9.672 136.188 9.224 135.644 8.92C135.1 8.6 134.516 8.44 133.892 8.44C133.268 8.44 132.692 8.592 132.164 8.896C131.636 9.2 131.204 9.648 130.868 10.24C130.548 10.816 130.388 11.504 130.388 12.304C130.388 13.104 130.548 13.808 130.868 14.416C131.204 15.008 131.636 15.464 132.164 15.784C132.708 16.104 133.284 16.264 133.892 16.264C134.516 16.264 135.1 16.112 135.644 15.808C136.188 15.488 136.62 15.04 136.94 14.464C137.26 13.872 137.42 13.168 137.42 12.352Z" fill="#08471D"/>
</svg>
