<svg width="615" height="73" viewBox="0 0 615 73" fill="none" xmlns="http://www.w3.org/2000/svg">
<path d="M17.7992 57.2271C17.8134 62.175 18.4097 66.4762 16.5505 67.0276C14.6914 67.579 9.23412 68.234 9.59866 68.8939C11.2279 70.1209 11.7427 70.326 12.1477 70.0604C19.4482 71.4678 19.8536 70.8144 20.7217 70.0604C20.7217 70.0604 22.1364 68.0032 21.6486 67.0275C21.1608 66.0518 20.7217 64.4613 20.7217 64.4613L21.2684 58.1641C21.2684 58.1641 19.8225 57.909 17.7992 57.2271Z" fill="#FF6726" stroke="black" stroke-width="0.5"/>
<path d="M23.7343 58.6328C23.7486 63.5808 24.3449 67.882 22.4857 68.4333C20.6265 68.9847 15.1693 69.6398 15.5338 70.2997C17.163 71.5267 17.6779 71.7318 18.0828 71.4662C25.3833 72.8736 25.7888 72.2202 26.6568 71.4662C26.6568 71.4662 28.0715 69.409 27.5837 68.4333C27.0959 67.4576 26.6568 65.867 26.6568 65.867L26.9302 58.8671C26.9302 58.8671 25.7888 58.8671 23.7343 58.6328Z" fill="#FF6726" stroke="black" stroke-width="0.5"/>
<path d="M4.78742 4.62821L1.57779 6.26808C1.57779 6.26808 0.594861 7.59772 1.00823 7.90794C3.305 6.57564 4.60482 6.2648 6.94339 6.48296C7.25988 5.11844 6.92658 4.46569 6.61363 3.26313C5.76387 3.53636 5.21951 4.4065 4.78742 4.62821Z" fill="#FF8E26"/>
<path d="M6.94339 6.48296C4.60482 6.2648 3.305 6.57564 1.00823 7.90794C3.28848 7.63495 4.58467 7.61116 6.94339 7.90794V6.48296Z" fill="#FF8E26"/>
<path d="M6.94339 6.48296V7.90794C12.1919 10.2548 12.1439 19.8318 7.98328 29.1149C3.82263 38.3979 5.94007 47.7729 11.4074 53.4786C16.8748 59.1843 31.0397 59.945 34.6915 57.9851C38.3433 56.0252 43.1377 57.2638 44.2791 57.9851C45.4205 58.7064 48.2605 58.5485 49.0729 58.7064C49.8815 58.1588 49.4173 57.6154 46.5618 56.1294C48.5654 56.6845 49.1019 56.6734 49.0729 56.1294C49.268 55.2644 47.2697 53.6741 44.2791 52.1469C45.3934 52.3007 45.7305 52.0798 46.1053 51.4441C43.8312 48.8618 43.3408 48.8321 41.9963 47.9301C36.4824 41.7467 33.7784 38.7506 26.2453 34.1084C16.6577 29.3799 15.7169 27.74 16.886 18.1352C17.5134 12.9812 19.6253 -2.67151 6.61363 3.26313C6.92658 4.46569 7.25988 5.11844 6.94339 6.48296Z" fill="#FFFCFA"/>
<path d="M6.61363 3.26313C6.92658 4.46569 7.25988 5.11844 6.94339 6.48296M6.61363 3.26313C6.56478 3.27455 6.66173 3.24766 6.61363 3.26313ZM6.61363 3.26313C5.76387 3.53636 5.21951 4.4065 4.78742 4.62821L1.57779 6.26808C1.57779 6.26808 0.594861 7.59772 1.00823 7.90794M6.61363 3.26313C19.6253 -2.67151 17.5134 12.9812 16.886 18.1352C15.7169 27.74 16.6577 29.3799 26.2453 34.1084C33.7784 38.7506 36.4824 41.7467 41.9963 47.9301C43.3408 48.8321 43.8312 48.8618 46.1053 51.4441C45.7305 52.0798 45.3934 52.3007 44.2791 52.1469C47.2697 53.6741 49.268 55.2644 49.0729 56.1294C49.1019 56.6734 48.5654 56.6845 46.5618 56.1294C49.4173 57.6154 49.8815 58.1588 49.0729 58.7064C48.2605 58.5485 45.4205 58.7064 44.2791 57.9851C43.1377 57.2638 38.3433 56.0252 34.6915 57.9851C31.0397 59.945 16.8748 59.1843 11.4074 53.4786C5.94007 47.7729 3.82263 38.3979 7.98328 29.1149C12.1439 19.8318 12.1919 10.2548 6.94339 7.90794M1.00823 7.90794C3.305 6.57564 4.60482 6.2648 6.94339 6.48296M1.00823 7.90794C3.28848 7.63495 4.58467 7.61116 6.94339 7.90794M6.94339 6.48296V7.90794" stroke="black" stroke-width="0.5"/>
<ellipse cx="7.98331" cy="3.81424" rx="0.228276" ry="0.468533" fill="black"/>
<ellipse cx="9.35294" cy="4.28274" rx="0.228276" ry="0.468533" fill="black"/>
<path d="M18.7122 38.0171C26.835 41.0636 34.6915 46.4507 33.7784 49.2619C32.8653 52.0731 32.4386 54.284 26.7019 53.6025C21.638 52.2553 14.6033 44.4661 14.6033 44.4661" stroke="black" stroke-width="0.5"/>
<path d="M70.0607 55.9562C68.3897 60.5975 67.4843 64.8415 65.5546 64.6916C63.6248 64.5417 58.2884 63.199 58.4054 63.9481C59.5143 65.6818 59.9268 66.0586 60.3967 65.9549C66.7582 69.8909 67.3605 69.4241 68.4305 69.0287C68.4305 69.0287 70.4564 67.6084 70.3314 66.5193C70.2065 65.4302 70.3365 63.7824 70.3365 63.7824L72.9923 58.0779C72.9923 58.0779 71.7244 57.3205 70.0607 55.9562Z" fill="#FF6726" stroke="black" stroke-width="0.5"/>
<path d="M75.0591 58.6328C75.0734 63.5808 75.6696 67.882 73.8105 68.4333C71.9513 68.9847 68.2108 68.4333 66.8586 70.2997C68.4878 71.5267 69.6321 71.7318 70.037 71.4662C77.3375 72.8736 77.1136 72.2202 77.9816 71.4662C77.9816 71.4662 79.3963 69.409 78.9085 68.4333C78.4207 67.4576 77.9816 65.867 77.9816 65.867L78.2549 58.8671C78.2549 58.8671 77.1136 58.8671 75.0591 58.6328Z" fill="#FF6726" stroke="black" stroke-width="0.5"/>
<path d="M56.1121 4.62821L52.9025 6.26808C52.9025 6.26808 51.9195 7.59772 52.3329 7.90794C54.6297 6.57564 55.9295 6.2648 58.2681 6.48296C58.5846 5.11844 58.2513 4.46569 57.9383 3.26313C57.0885 3.53636 56.5442 4.4065 56.1121 4.62821Z" fill="#FF8E26"/>
<path d="M58.2681 6.48296C55.9295 6.2648 54.6297 6.57564 52.3329 7.90794C54.6132 7.63495 55.9094 7.61116 58.2681 7.90794V6.48296Z" fill="#FF8E26"/>
<path d="M58.2681 6.48296V7.90794C63.5166 10.2548 63.4686 19.8318 59.308 29.1149C55.1473 38.3979 57.2647 47.7729 62.7321 53.4786C68.1994 59.1843 82.3644 59.945 86.0162 57.9851C89.668 56.0252 94.4624 57.2638 95.6038 57.9851C96.7451 58.7064 99.5852 58.5485 100.398 58.7064C101.206 58.1588 100.742 57.6154 97.8865 56.1294C99.8901 56.6845 100.427 56.6734 100.398 56.1294C100.593 55.2644 98.5944 53.6741 95.6038 52.1469C96.7181 52.3007 97.0551 52.0798 97.43 51.4441C95.1559 48.8618 94.6655 48.8321 93.321 47.9301C87.8071 41.7467 85.1031 38.7506 77.57 34.1084C67.9824 29.3799 67.0416 27.74 68.2107 18.1352C68.8381 12.9812 70.95 -2.67151 57.9383 3.26313C58.2513 4.46569 58.5846 5.11844 58.2681 6.48296Z" fill="#FFFCFA"/>
<path d="M57.9383 3.26313C58.2513 4.46569 58.5846 5.11844 58.2681 6.48296M57.9383 3.26313C57.8895 3.27455 57.9864 3.24766 57.9383 3.26313ZM57.9383 3.26313C57.0885 3.53636 56.5442 4.4065 56.1121 4.62821L52.9025 6.26808C52.9025 6.26808 51.9195 7.59772 52.3329 7.90794M57.9383 3.26313C70.95 -2.67151 68.8381 12.9812 68.2107 18.1352C67.0416 27.74 67.9824 29.3799 77.57 34.1084C85.1031 38.7506 87.8071 41.7467 93.321 47.9301C94.6655 48.8321 95.1559 48.8618 97.43 51.4441C97.0551 52.0798 96.7181 52.3007 95.6038 52.1469C98.5944 53.6741 100.593 55.2644 100.398 56.1294C100.427 56.6734 99.8901 56.6845 97.8865 56.1294C100.742 57.6154 101.206 58.1588 100.398 58.7064C99.5852 58.5485 96.7451 58.7064 95.6038 57.9851C94.4624 57.2638 89.668 56.0252 86.0162 57.9851C82.3644 59.945 68.1994 59.1843 62.7321 53.4786C57.2647 47.7729 55.1473 38.3979 59.308 29.1149C63.4686 19.8318 63.5166 10.2548 58.2681 7.90794M52.3329 7.90794C54.6297 6.57564 55.9295 6.2648 58.2681 6.48296M52.3329 7.90794C54.6132 7.63495 55.9094 7.61116 58.2681 7.90794M58.2681 6.48296V7.90794" stroke="black" stroke-width="0.5"/>
<ellipse cx="59.308" cy="3.81424" rx="0.228276" ry="0.468533" fill="black"/>
<ellipse cx="60.6776" cy="4.28274" rx="0.228276" ry="0.468533" fill="black"/>
<path d="M70.0369 38.0171C78.1596 41.0636 86.0162 46.4507 85.1031 49.2619C84.19 52.0731 83.7632 54.284 78.0265 53.6025C72.9627 52.2553 65.9279 44.4661 65.9279 44.4661" stroke="black" stroke-width="0.5"/>
<path d="M172.71 55.9562C171.039 60.5975 170.134 64.8415 168.204 64.6916C166.274 64.5417 160.938 63.199 161.055 63.9481C162.164 65.6818 162.576 66.0586 163.046 65.9549C169.408 69.8909 170.01 69.4241 171.08 69.0287C171.08 69.0287 173.106 67.6084 172.981 66.5193C172.856 65.4302 172.986 63.7824 172.986 63.7824L175.642 58.0779C175.642 58.0779 174.374 57.3205 172.71 55.9562Z" fill="#FF6726" stroke="black" stroke-width="0.5"/>
<path d="M177.709 58.6328C177.723 63.5808 178.319 67.882 176.46 68.4333C174.601 68.9847 170.86 68.4333 169.508 70.2997C171.137 71.5267 172.281 71.7318 172.686 71.4662C179.987 72.8736 179.763 72.2202 180.631 71.4662C180.631 71.4662 182.046 69.409 181.558 68.4333C181.07 67.4576 180.631 65.867 180.631 65.867L180.904 58.8671C180.904 58.8671 179.763 58.8671 177.709 58.6328Z" fill="#FF6726" stroke="black" stroke-width="0.5"/>
<path d="M158.762 4.62821L155.552 6.26808C155.552 6.26808 154.569 7.59772 154.982 7.90794C157.279 6.57564 158.579 6.2648 160.917 6.48296C161.234 5.11844 160.901 4.46569 160.588 3.26313C159.738 3.53636 159.194 4.4065 158.762 4.62821Z" fill="#FF8E26"/>
<path d="M160.917 6.48296C158.579 6.2648 157.279 6.57564 154.982 7.90794C157.263 7.63495 158.559 7.61116 160.917 7.90794V6.48296Z" fill="#FF8E26"/>
<path d="M160.917 6.48296V7.90794C166.166 10.2548 166.118 19.8318 161.957 29.1149C157.797 38.3979 159.914 47.7729 165.382 53.4786C170.849 59.1843 185.014 59.945 188.666 57.9851C192.317 56.0252 197.112 57.2638 198.253 57.9851C199.395 58.7064 202.235 58.5485 203.047 58.7064C203.856 58.1588 203.391 57.6154 200.536 56.1294C202.54 56.6845 203.076 56.6734 203.047 56.1294C203.242 55.2644 201.244 53.6741 198.253 52.1469C199.368 52.3007 199.705 52.0798 200.079 51.4441C197.805 48.8618 197.315 48.8321 195.97 47.9301C190.457 41.7467 187.753 38.7506 180.219 34.1084C170.632 29.3799 169.691 27.74 170.86 18.1352C171.487 12.9812 173.599 -2.67151 160.588 3.26313C160.901 4.46569 161.234 5.11844 160.917 6.48296Z" fill="#FFFCFA"/>
<path d="M160.588 3.26313C160.901 4.46569 161.234 5.11844 160.917 6.48296M160.588 3.26313C160.539 3.27455 160.636 3.24766 160.588 3.26313ZM160.588 3.26313C159.738 3.53636 159.194 4.4065 158.762 4.62821L155.552 6.26808C155.552 6.26808 154.569 7.59772 154.982 7.90794M160.588 3.26313C173.599 -2.67151 171.487 12.9812 170.86 18.1352C169.691 27.74 170.632 29.3799 180.219 34.1084C187.753 38.7506 190.457 41.7467 195.97 47.9301C197.315 48.8321 197.805 48.8618 200.079 51.4441C199.705 52.0798 199.368 52.3007 198.253 52.1469C201.244 53.6741 203.242 55.2644 203.047 56.1294C203.076 56.6734 202.54 56.6845 200.536 56.1294C203.391 57.6154 203.856 58.1588 203.047 58.7064C202.235 58.5485 199.395 58.7064 198.253 57.9851C197.112 57.2638 192.317 56.0252 188.666 57.9851C185.014 59.945 170.849 59.1843 165.382 53.4786C159.914 47.7729 157.797 38.3979 161.957 29.1149C166.118 19.8318 166.166 10.2548 160.917 7.90794M154.982 7.90794C157.279 6.57564 158.579 6.2648 160.917 6.48296M154.982 7.90794C157.263 7.63495 158.559 7.61116 160.917 7.90794M160.917 6.48296V7.90794" stroke="black" stroke-width="0.5"/>
<ellipse cx="161.957" cy="3.81424" rx="0.228276" ry="0.468533" fill="black"/>
<ellipse cx="163.327" cy="4.28274" rx="0.228276" ry="0.468533" fill="black"/>
<path d="M172.686 38.0171C180.809 41.0636 188.666 46.4507 187.753 49.2619C186.839 52.0731 186.413 54.284 180.676 53.6025C175.612 52.2553 168.577 44.4661 168.577 44.4661" stroke="black" stroke-width="0.5"/>
<path d="M224.035 55.0194C222.364 59.6608 221.458 63.9047 219.529 63.7548C217.599 63.605 212.263 62.2623 212.38 63.0113C213.488 64.7451 213.901 65.1219 214.371 65.0181C220.732 68.9542 221.335 68.4873 222.405 68.092C222.405 68.092 224.431 66.6716 224.306 65.5825C224.181 64.4934 224.311 62.8456 224.311 62.8456L226.966 57.1412C226.966 57.1412 225.699 56.3838 224.035 55.0194Z" fill="#FF6726" stroke="black" stroke-width="0.5"/>
<path d="M229.571 57.4751C230.994 62.2027 232.789 66.1373 231.168 67.2222C229.547 68.3072 225.813 68.9018 225.051 71.0922C226.959 71.777 228.111 71.63 228.423 71.2544C235.805 70.4107 235.405 69.853 236.021 68.8715C236.021 68.8715 236.788 66.4798 236.043 65.6931C235.299 64.9063 234.426 63.5169 234.426 63.5169L232.694 56.7406C232.694 56.7406 231.602 57.0829 229.571 57.4751Z" fill="#FF6726" stroke="black" stroke-width="0.5"/>
<path d="M210.086 3.6912L206.877 5.33107C206.877 5.33107 205.894 6.66071 206.307 6.97093C208.604 5.63863 209.904 5.32778 212.242 5.54595C212.559 4.18143 212.225 3.52868 211.912 2.32612C211.063 2.59935 210.518 3.46948 210.086 3.6912Z" fill="#FF8E26"/>
<path d="M212.242 5.54595C209.904 5.32778 208.604 5.63863 206.307 6.97093C208.587 6.69794 209.884 6.67415 212.242 6.97093V5.54595Z" fill="#FF8E26"/>
<path d="M212.242 5.54595V6.97093C217.491 9.31775 217.443 18.8948 213.282 28.1778C209.121 37.4609 211.239 46.8359 216.706 52.5416C222.174 58.2473 236.339 59.008 239.99 57.0481C243.642 55.0882 248.437 56.3268 249.578 57.0481C250.719 57.7694 253.559 57.6115 254.372 57.7694C255.18 57.2218 254.716 56.6784 251.861 55.1924C253.864 55.7474 254.401 55.7363 254.372 55.1924C254.567 54.3274 252.569 52.7371 249.578 51.2099C250.692 51.3637 251.029 51.1428 251.404 50.5071C249.13 47.9247 248.64 47.895 247.295 46.9931C241.781 40.8096 239.077 37.8136 231.544 33.1714C221.957 28.4429 221.016 26.803 222.185 17.1982C222.812 12.0442 224.924 -3.60852 211.912 2.32612C212.225 3.52868 212.559 4.18143 212.242 5.54595Z" fill="#FFFCFA"/>
<path d="M211.912 2.32612C212.225 3.52868 212.559 4.18143 212.242 5.54595M211.912 2.32612C211.864 2.33753 211.961 2.31065 211.912 2.32612ZM211.912 2.32612C211.063 2.59935 210.518 3.46948 210.086 3.6912L206.877 5.33107C206.877 5.33107 205.894 6.66071 206.307 6.97093M211.912 2.32612C224.924 -3.60852 222.812 12.0442 222.185 17.1982C221.016 26.803 221.957 28.4429 231.544 33.1714C239.077 37.8136 241.781 40.8096 247.295 46.9931C248.64 47.895 249.13 47.9247 251.404 50.5071C251.029 51.1428 250.692 51.3637 249.578 51.2099C252.569 52.7371 254.567 54.3274 254.372 55.1924C254.401 55.7363 253.864 55.7474 251.861 55.1924C254.716 56.6784 255.18 57.2218 254.372 57.7694C253.559 57.6115 250.719 57.7694 249.578 57.0481C248.437 56.3268 243.642 55.0882 239.99 57.0481C236.339 59.008 222.174 58.2473 216.706 52.5416C211.239 46.8359 209.121 37.4609 213.282 28.1778C217.443 18.8948 217.491 9.31775 212.242 6.97093M206.307 6.97093C208.604 5.63863 209.904 5.32778 212.242 5.54595M206.307 6.97093C208.587 6.69794 209.884 6.67415 212.242 6.97093M212.242 5.54595V6.97093" stroke="black" stroke-width="0.5"/>
<ellipse cx="213.282" cy="2.87747" rx="0.228276" ry="0.468533" fill="black"/>
<ellipse cx="214.652" cy="3.34573" rx="0.228276" ry="0.468533" fill="black"/>
<path d="M224.011 37.0803C232.134 40.1268 239.99 45.5139 239.077 48.3251C238.164 51.1363 237.737 53.3473 232.001 52.6657C226.937 51.3185 219.902 43.5293 219.902 43.5293" stroke="black" stroke-width="0.5"/>
<path d="M275.36 55.0194C273.689 59.6608 272.783 63.9047 270.853 63.7548C268.924 63.605 263.587 62.2623 263.704 63.0113C264.813 64.7451 265.226 65.1219 265.696 65.0181C272.057 68.9542 272.659 68.4873 273.729 68.092C273.729 68.092 275.755 66.6716 275.63 65.5825C275.505 64.4934 275.635 62.8456 275.635 62.8456L278.291 57.1412C278.291 57.1412 277.023 56.3838 275.36 55.0194Z" fill="#FF6726" stroke="black" stroke-width="0.5"/>
<path d="M282.604 56.7626C284.849 61.1412 287.319 64.67 285.92 66.0423C284.521 67.4146 280.957 68.7035 280.6 71.0003C282.598 71.3135 283.705 70.9515 283.944 70.5236C291.05 68.3015 290.556 67.8288 290.985 66.748C290.985 66.748 291.311 64.2523 290.438 63.6194C289.566 62.9865 288.459 61.7854 288.459 61.7854L285.542 55.4514C285.542 55.4514 284.531 55.9938 282.604 56.7626Z" fill="#FF6726" stroke="black" stroke-width="0.5"/>
<path d="M261.411 3.6912L258.201 5.33107C258.201 5.33107 257.218 6.66071 257.632 6.97093C259.929 5.63863 261.228 5.32778 263.567 5.54595C263.883 4.18143 263.55 3.52868 263.237 2.32612C262.387 2.59935 261.843 3.46948 261.411 3.6912Z" fill="#FF8E26"/>
<path d="M263.567 5.54595C261.228 5.32778 259.929 5.63863 257.632 6.97093C259.912 6.69794 261.208 6.67415 263.567 6.97093V5.54595Z" fill="#FF8E26"/>
<path d="M263.567 5.54595V6.97093C268.815 9.31775 268.767 18.8948 264.607 28.1778C260.446 37.4609 262.564 46.8359 268.031 52.5416C273.498 58.2473 287.663 59.008 291.315 57.0481C294.967 55.0882 299.761 56.3268 300.903 57.0481C302.044 57.7694 304.884 57.6115 305.696 57.7694C306.505 57.2218 306.041 56.6784 303.185 55.1924C305.189 55.7474 305.725 55.7363 305.696 55.1924C305.892 54.3274 303.893 52.7371 300.903 51.2099C302.017 51.3637 302.354 51.1428 302.729 50.5071C300.455 47.9247 299.964 47.895 298.62 46.9931C293.106 40.8096 290.402 37.8136 282.869 33.1714C273.281 28.4429 272.34 26.803 273.51 17.1982C274.137 12.0442 276.249 -3.60852 263.237 2.32612C263.55 3.52868 263.883 4.18143 263.567 5.54595Z" fill="#FFFCFA"/>
<path d="M263.237 2.32612C263.55 3.52868 263.883 4.18143 263.567 5.54595M263.237 2.32612C263.188 2.33753 263.285 2.31065 263.237 2.32612ZM263.237 2.32612C262.387 2.59935 261.843 3.46948 261.411 3.6912L258.201 5.33107C258.201 5.33107 257.218 6.66071 257.632 6.97093M263.237 2.32612C276.249 -3.60852 274.137 12.0442 273.51 17.1982C272.34 26.803 273.281 28.4429 282.869 33.1714C290.402 37.8136 293.106 40.8096 298.62 46.9931C299.964 47.895 300.455 47.9247 302.729 50.5071C302.354 51.1428 302.017 51.3637 300.903 51.2099C303.893 52.7371 305.892 54.3274 305.696 55.1924C305.725 55.7363 305.189 55.7474 303.185 55.1924C306.041 56.6784 306.505 57.2218 305.696 57.7694C304.884 57.6115 302.044 57.7694 300.903 57.0481C299.761 56.3268 294.967 55.0882 291.315 57.0481C287.663 59.008 273.498 58.2473 268.031 52.5416C262.564 46.8359 260.446 37.4609 264.607 28.1778C268.767 18.8948 268.815 9.31775 263.567 6.97093M257.632 6.97093C259.929 5.63863 261.228 5.32778 263.567 5.54595M257.632 6.97093C259.912 6.69794 261.208 6.67415 263.567 6.97093M263.567 5.54595V6.97093" stroke="black" stroke-width="0.5"/>
<ellipse cx="264.607" cy="2.87747" rx="0.228276" ry="0.468533" fill="black"/>
<ellipse cx="265.977" cy="3.34573" rx="0.228276" ry="0.468533" fill="black"/>
<path d="M275.336 37.0803C283.459 40.1268 291.315 45.5139 290.402 48.3251C289.489 51.1363 289.062 53.3473 283.325 52.6657C278.262 51.3185 271.227 43.5293 271.227 43.5293" stroke="black" stroke-width="0.5"/>
<path d="M328.472 56.5336C328.776 61.4717 329.623 65.7283 327.8 66.3935C325.976 67.0586 320.567 68.0492 320.97 68.6854C322.668 69.8097 323.194 69.9827 323.583 69.6925C330.952 70.6468 331.319 69.9696 332.141 69.1634C332.141 69.1634 333.433 67.0226 332.889 66.0788C332.344 65.135 331.813 63.5744 331.813 63.5744L331.99 57.2549C331.99 57.2549 330.531 57.0894 328.472 56.5336Z" fill="#FF6726" stroke="black" stroke-width="0.5"/>
<path d="M333.929 56.7626C336.174 61.1412 338.644 64.67 337.245 66.0423C335.846 67.4146 332.282 68.7035 331.925 71.0003C333.923 71.3135 335.03 70.9515 335.269 70.5236C342.374 68.3015 341.881 67.8288 342.31 66.748C342.31 66.748 342.636 64.2523 341.763 63.6194C340.89 62.9865 339.783 61.7854 339.783 61.7854L336.867 55.4514C336.867 55.4514 335.855 55.9938 333.929 56.7626Z" fill="#FF6726" stroke="black" stroke-width="0.5"/>
<path d="M312.736 3.6912L309.526 5.33107C309.526 5.33107 308.543 6.66071 308.956 6.97093C311.253 5.63863 312.553 5.32778 314.892 5.54595C315.208 4.18143 314.875 3.52868 314.562 2.32612C313.712 2.59935 313.168 3.46948 312.736 3.6912Z" fill="#FF8E26"/>
<path d="M314.892 5.54595C312.553 5.32778 311.253 5.63863 308.956 6.97093C311.237 6.69794 312.533 6.67415 314.892 6.97093V5.54595Z" fill="#FF8E26"/>
<path d="M314.892 5.54595V6.97093C320.14 9.31775 320.092 18.8948 315.932 28.1778C311.771 37.4609 313.888 46.8359 319.356 52.5416C324.823 58.2473 338.988 59.008 342.64 57.0481C346.292 55.0882 351.086 56.3268 352.227 57.0481C353.369 57.7694 356.209 57.6115 357.021 57.7694C357.83 57.2218 357.366 56.6784 354.51 55.1924C356.514 55.7474 357.05 55.7363 357.021 55.1924C357.216 54.3274 355.218 52.7371 352.227 51.2099C353.342 51.3637 353.679 51.1428 354.054 50.5071C351.779 47.9247 351.289 47.895 349.945 46.9931C344.431 40.8096 341.727 37.8136 334.194 33.1714C324.606 28.4429 323.665 26.803 324.834 17.1982C325.462 12.0442 327.574 -3.60852 314.562 2.32612C314.875 3.52868 315.208 4.18143 314.892 5.54595Z" fill="#FFFCFA"/>
<path d="M314.562 2.32612C314.875 3.52868 315.208 4.18143 314.892 5.54595M314.562 2.32612C314.513 2.33753 314.61 2.31065 314.562 2.32612ZM314.562 2.32612C313.712 2.59935 313.168 3.46948 312.736 3.6912L309.526 5.33107C309.526 5.33107 308.543 6.66071 308.956 6.97093M314.562 2.32612C327.574 -3.60852 325.462 12.0442 324.834 17.1982C323.665 26.803 324.606 28.4429 334.194 33.1714C341.727 37.8136 344.431 40.8096 349.945 46.9931C351.289 47.895 351.779 47.9247 354.054 50.5071C353.679 51.1428 353.342 51.3637 352.227 51.2099C355.218 52.7371 357.216 54.3274 357.021 55.1924C357.05 55.7363 356.514 55.7474 354.51 55.1924C357.366 56.6784 357.83 57.2218 357.021 57.7694C356.209 57.6115 353.369 57.7694 352.227 57.0481C351.086 56.3268 346.292 55.0882 342.64 57.0481C338.988 59.008 324.823 58.2473 319.356 52.5416C313.888 46.8359 311.771 37.4609 315.932 28.1778C320.092 18.8948 320.14 9.31775 314.892 6.97093M308.956 6.97093C311.253 5.63863 312.553 5.32778 314.892 5.54595M308.956 6.97093C311.237 6.69794 312.533 6.67415 314.892 6.97093M314.892 5.54595V6.97093" stroke="black" stroke-width="0.5"/>
<ellipse cx="315.932" cy="2.87747" rx="0.228276" ry="0.468533" fill="black"/>
<ellipse cx="317.301" cy="3.34573" rx="0.228276" ry="0.468533" fill="black"/>
<path d="M326.66 37.0803C334.783 40.1268 342.64 45.5139 341.727 48.3251C340.814 51.1363 340.387 53.3473 334.65 52.6657C329.586 51.3185 322.552 43.5293 322.552 43.5293" stroke="black" stroke-width="0.5"/>
<path d="M379.797 57.0021C380.101 61.9402 380.948 66.1968 379.124 66.862C377.301 67.5271 371.892 68.5177 372.295 69.154C373.993 70.2782 374.519 70.4512 374.907 70.161C382.277 71.1154 382.643 70.4381 383.466 69.6319C383.466 69.6319 384.757 67.4911 384.213 66.5473C383.669 65.6035 383.138 64.0429 383.138 64.0429L383.314 57.7234C383.314 57.7234 381.856 57.5579 379.797 57.0021Z" fill="#FF6726" stroke="black" stroke-width="0.5"/>
<path d="M385.249 58.0017C385.628 62.9344 386.539 67.1771 384.726 67.871C382.912 68.5649 379.142 68.3051 377.931 70.271C379.646 71.3681 380.802 71.484 381.186 71.1877C388.569 72.0251 388.298 71.3909 389.108 70.5718C389.108 70.5718 390.367 68.4108 389.809 67.4757C389.251 66.5406 388.696 64.9886 388.696 64.9886L388.453 57.9875C388.453 57.9875 387.315 58.076 385.249 58.0017Z" fill="#FF6726" stroke="black" stroke-width="0.5"/>
<path d="M364.06 4.15946L360.851 5.79933C360.851 5.79933 359.868 7.12897 360.281 7.43919C362.578 6.10689 363.878 5.79605 366.216 6.01421C366.533 4.64969 366.2 3.99694 365.887 2.79438C365.037 3.06761 364.492 3.93775 364.06 4.15946Z" fill="#FF8E26"/>
<path d="M366.216 6.01421C363.878 5.79605 362.578 6.10689 360.281 7.43919C362.561 7.1662 363.858 7.14241 366.216 7.43919V6.01421Z" fill="#FF8E26"/>
<path d="M366.216 6.01421V7.43919C371.465 9.78601 371.417 19.3631 367.256 28.6461C363.096 37.9291 365.213 47.3041 370.68 53.0098C376.148 58.7156 390.313 59.4763 393.964 57.5164C397.616 55.5564 402.411 56.7951 403.552 57.5164C404.693 58.2376 407.533 58.0797 408.346 58.2376C409.154 57.69 408.69 57.1466 405.835 55.6607C407.838 56.2157 408.375 56.2046 408.346 55.6607C408.541 54.7957 406.543 53.2054 403.552 51.6782C404.666 51.832 405.003 51.6111 405.378 50.9754C403.104 48.393 402.614 48.3633 401.269 47.4614C395.755 41.2779 393.051 38.2818 385.518 33.6396C375.931 28.9112 374.99 27.2713 376.159 17.6664C376.786 12.5125 378.898 -3.14026 365.887 2.79438C366.2 3.99694 366.533 4.64969 366.216 6.01421Z" fill="#FFFCFA"/>
<path d="M365.887 2.79438C366.2 3.99694 366.533 4.64969 366.216 6.01421M365.887 2.79438C365.838 2.8058 365.935 2.77891 365.887 2.79438ZM365.887 2.79438C365.037 3.06761 364.492 3.93775 364.06 4.15946L360.851 5.79933C360.851 5.79933 359.868 7.12897 360.281 7.43919M365.887 2.79438C378.898 -3.14026 376.786 12.5125 376.159 17.6664C374.99 27.2713 375.931 28.9112 385.518 33.6396C393.051 38.2818 395.755 41.2779 401.269 47.4614C402.614 48.3633 403.104 48.393 405.378 50.9754C405.003 51.6111 404.666 51.832 403.552 51.6782C406.543 53.2054 408.541 54.7957 408.346 55.6607C408.375 56.2046 407.838 56.2157 405.835 55.6607C408.69 57.1466 409.154 57.69 408.346 58.2376C407.533 58.0797 404.693 58.2376 403.552 57.5164C402.411 56.7951 397.616 55.5564 393.964 57.5164C390.313 59.4763 376.148 58.7156 370.68 53.0098C365.213 47.3041 363.096 37.9291 367.256 28.6461C371.417 19.3631 371.465 9.78601 366.216 7.43919M360.281 7.43919C362.578 6.10689 363.878 5.79605 366.216 6.01421M360.281 7.43919C362.561 7.1662 363.858 7.14241 366.216 7.43919M366.216 6.01421V7.43919" stroke="black" stroke-width="0.5"/>
<ellipse cx="367.256" cy="3.34549" rx="0.228276" ry="0.468533" fill="black"/>
<ellipse cx="368.626" cy="3.81399" rx="0.228276" ry="0.468533" fill="black"/>
<path d="M377.985 37.5483C386.108 40.5948 393.964 45.9819 393.051 48.7931C392.138 51.6043 391.712 53.8153 385.975 53.1337C380.911 51.7865 373.876 43.9973 373.876 43.9973" stroke="black" stroke-width="0.5"/>
<path d="M431.121 57.4706C431.425 62.4087 432.273 66.6654 430.449 67.3305C428.626 67.9956 423.217 68.9862 423.619 69.6225C425.317 70.7467 425.843 70.9197 426.232 70.6295C433.602 71.5839 433.968 70.9066 434.79 70.1004C434.79 70.1004 436.082 67.9596 435.538 67.0158C434.994 66.072 434.462 64.5114 434.462 64.5114L434.639 58.1919C434.639 58.1919 433.181 58.0264 431.121 57.4706Z" fill="#FF6726" stroke="black" stroke-width="0.5"/>
<path d="M437.099 58.1825C436.028 63.007 435.666 67.3356 433.734 67.4437C431.802 67.5517 428.278 66.151 426.551 67.6575C427.87 69.2291 428.94 69.6931 429.393 69.5277C436.198 72.5843 436.123 71.8959 437.134 71.3616C437.134 71.3616 438.963 69.6837 438.701 68.6204C438.44 67.5571 438.361 65.906 438.361 65.906L440.161 59.1485C440.161 59.1485 439.049 58.885 437.099 58.1825Z" fill="#FF6726" stroke="black" stroke-width="0.5"/>
<path d="M415.385 4.62821L412.175 6.26808C412.175 6.26808 411.193 7.59772 411.606 7.90794C413.903 6.57564 415.203 6.2648 417.541 6.48296C417.858 5.11844 417.524 4.46569 417.211 3.26313C416.362 3.53636 415.817 4.4065 415.385 4.62821Z" fill="#FF8E26"/>
<path d="M417.541 6.48296C415.203 6.2648 413.903 6.57564 411.606 7.90794C413.886 7.63495 415.182 7.61116 417.541 7.90794V6.48296Z" fill="#FF8E26"/>
<path d="M417.541 6.48296V7.90794C422.79 10.2548 422.742 19.8318 418.581 29.1149C414.42 38.3979 416.538 47.7729 422.005 53.4786C427.472 59.1843 441.637 59.945 445.289 57.9851C448.941 56.0252 453.735 57.2638 454.877 57.9851C456.018 58.7064 458.858 58.5485 459.671 58.7064C460.479 58.1588 460.015 57.6154 457.16 56.1294C459.163 56.6845 459.7 56.6734 459.671 56.1294C459.866 55.2644 457.867 53.6741 454.877 52.1469C455.991 52.3007 456.328 52.0798 456.703 51.4441C454.429 48.8618 453.938 48.8321 452.594 47.9301C447.08 41.7467 444.376 38.7506 436.843 34.1084C427.255 29.3799 426.315 27.74 427.484 18.1352C428.111 12.9812 430.223 -2.67151 417.211 3.26313C417.524 4.46569 417.858 5.11844 417.541 6.48296Z" fill="#FFFCFA"/>
<path d="M417.211 3.26313C417.524 4.46569 417.858 5.11844 417.541 6.48296M417.211 3.26313C417.162 3.27455 417.259 3.24766 417.211 3.26313ZM417.211 3.26313C416.362 3.53636 415.817 4.4065 415.385 4.62821L412.175 6.26808C412.175 6.26808 411.193 7.59772 411.606 7.90794M417.211 3.26313C430.223 -2.67151 428.111 12.9812 427.484 18.1352C426.315 27.74 427.255 29.3799 436.843 34.1084C444.376 38.7506 447.08 41.7467 452.594 47.9301C453.938 48.8321 454.429 48.8618 456.703 51.4441C456.328 52.0798 455.991 52.3007 454.877 52.1469C457.867 53.6741 459.866 55.2644 459.671 56.1294C459.7 56.6734 459.163 56.6845 457.16 56.1294C460.015 57.6154 460.479 58.1588 459.671 58.7064C458.858 58.5485 456.018 58.7064 454.877 57.9851C453.735 57.2638 448.941 56.0252 445.289 57.9851C441.637 59.945 427.472 59.1843 422.005 53.4786C416.538 47.7729 414.42 38.3979 418.581 29.1149C422.742 19.8318 422.79 10.2548 417.541 7.90794M411.606 7.90794C413.903 6.57564 415.203 6.2648 417.541 6.48296M411.606 7.90794C413.886 7.63495 415.182 7.61116 417.541 7.90794M417.541 6.48296V7.90794" stroke="black" stroke-width="0.5"/>
<ellipse cx="418.581" cy="3.81424" rx="0.228276" ry="0.468533" fill="black"/>
<ellipse cx="419.951" cy="4.28274" rx="0.228276" ry="0.468533" fill="black"/>
<path d="M429.31 38.0171C437.433 41.0636 445.289 46.4507 444.376 49.2619C443.463 52.0731 443.036 54.284 437.3 53.6025C432.236 52.2553 425.201 44.4661 425.201 44.4661" stroke="black" stroke-width="0.5"/>
<path d="M482.446 57.4706C482.75 62.4087 483.597 66.6654 481.774 67.3305C479.95 67.9956 474.541 68.9862 474.944 69.6225C476.642 70.7467 477.168 70.9197 477.557 70.6295C484.926 71.5839 485.293 70.9066 486.115 70.1004C486.115 70.1004 487.407 67.9596 486.863 67.0158C486.319 66.072 485.787 64.5114 485.787 64.5114L485.964 58.1919C485.964 58.1919 484.506 58.0264 482.446 57.4706Z" fill="#FF6726" stroke="black" stroke-width="0.5"/>
<path d="M487.578 56.317C484.89 60.4247 483.038 64.3309 481.196 63.7194C479.355 63.1078 476.557 60.5014 474.418 61.2707C475.099 63.2235 475.935 64.051 476.415 64.0636C481.696 69.425 481.867 68.755 482.997 68.6291C482.997 68.6291 485.292 67.7377 485.42 66.649C485.548 65.5603 486.052 63.9901 486.052 63.9901L490.098 58.3476C490.098 58.3476 489.153 57.6917 487.578 56.317Z" fill="#FF6726" stroke="black" stroke-width="0.5"/>
<path d="M466.71 4.62821L463.5 6.26808C463.5 6.26808 462.517 7.59772 462.931 7.90794C465.227 6.57564 466.527 6.2648 468.866 6.48296C469.182 5.11844 468.849 4.46569 468.536 3.26313C467.686 3.53636 467.142 4.4065 466.71 4.62821Z" fill="#FF8E26"/>
<path d="M468.866 6.48296C466.527 6.2648 465.227 6.57564 462.931 7.90794C465.211 7.63495 466.507 7.61116 468.866 7.90794V6.48296Z" fill="#FF8E26"/>
<path d="M468.866 6.48296V7.90794C474.114 10.2548 474.066 19.8318 469.906 29.1149C465.745 38.3979 467.862 47.7729 473.33 53.4786C478.797 59.1843 492.962 59.945 496.614 57.9851C500.266 56.0252 505.06 57.2638 506.201 57.9851C507.343 58.7064 510.183 58.5485 510.995 58.7064C511.804 58.1588 511.34 57.6154 508.484 56.1294C510.488 56.6845 511.024 56.6734 510.995 56.1294C511.19 55.2644 509.192 53.6741 506.201 52.1469C507.316 52.3007 507.653 52.0798 508.028 51.4441C505.754 48.8618 505.263 48.8321 503.919 47.9301C498.405 41.7467 495.701 38.7506 488.168 34.1084C478.58 29.3799 477.639 27.74 478.808 18.1352C479.436 12.9812 481.548 -2.67151 468.536 3.26313C468.849 4.46569 469.182 5.11844 468.866 6.48296Z" fill="#FFFCFA"/>
<path d="M468.536 3.26313C468.849 4.46569 469.182 5.11844 468.866 6.48296M468.536 3.26313C468.487 3.27455 468.584 3.24766 468.536 3.26313ZM468.536 3.26313C467.686 3.53636 467.142 4.4065 466.71 4.62821L463.5 6.26808C463.5 6.26808 462.517 7.59772 462.931 7.90794M468.536 3.26313C481.548 -2.67151 479.436 12.9812 478.808 18.1352C477.639 27.74 478.58 29.3799 488.168 34.1084C495.701 38.7506 498.405 41.7467 503.919 47.9301C505.263 48.8321 505.754 48.8618 508.028 51.4441C507.653 52.0798 507.316 52.3007 506.201 52.1469C509.192 53.6741 511.19 55.2644 510.995 56.1294C511.024 56.6734 510.488 56.6845 508.484 56.1294C511.34 57.6154 511.804 58.1588 510.995 58.7064C510.183 58.5485 507.343 58.7064 506.201 57.9851C505.06 57.2638 500.266 56.0252 496.614 57.9851C492.962 59.945 478.797 59.1843 473.33 53.4786C467.862 47.7729 465.745 38.3979 469.906 29.1149C474.066 19.8318 474.114 10.2548 468.866 7.90794M462.931 7.90794C465.227 6.57564 466.527 6.2648 468.866 6.48296M462.931 7.90794C465.211 7.63495 466.507 7.61116 468.866 7.90794M468.866 6.48296V7.90794" stroke="black" stroke-width="0.5"/>
<ellipse cx="469.906" cy="3.81424" rx="0.228276" ry="0.468533" fill="black"/>
<ellipse cx="471.275" cy="4.28274" rx="0.228276" ry="0.468533" fill="black"/>
<path d="M480.635 38.0171C488.757 41.0636 496.614 46.4507 495.701 49.2619C494.788 52.0731 494.361 54.284 488.624 53.6025C483.56 52.2553 476.526 44.4661 476.526 44.4661" stroke="black" stroke-width="0.5"/>
<path d="M535.779 56.8418C537.195 61.5717 538.985 65.509 537.362 66.5914C535.739 67.6738 530.704 69.9293 531.239 70.4519C533.146 71.1396 533.697 71.1822 534.009 70.8072C541.393 69.975 541.595 69.2288 542.212 68.2483C542.212 68.2483 542.983 65.8579 542.24 65.0699C541.496 64.282 540.626 62.8912 540.626 62.8912L539.364 56.703C539.364 56.703 537.909 56.8904 535.779 56.8418Z" fill="#FF6726" stroke="black" stroke-width="0.5"/>
<path d="M537.3 57.812C535.905 62.5483 535.251 66.8405 533.315 66.8103C531.38 66.7801 527.96 65.131 526.136 66.5104C527.344 68.1724 528.38 68.7118 528.843 68.5792C535.424 72.1145 535.396 71.4224 536.441 70.9616C536.441 70.9616 538.38 69.4185 538.191 68.3391C538.002 67.2597 538.035 65.6069 538.035 65.6069L540.29 58.9944C540.29 58.9944 539.198 58.6521 537.3 57.812Z" fill="#FF6726" stroke="black" stroke-width="0.5"/>
<path d="M518.035 4.62821L514.825 6.26808C514.825 6.26808 513.842 7.59772 514.255 7.90794C516.552 6.57564 517.852 6.2648 520.191 6.48296C520.507 5.11844 520.174 4.46569 519.861 3.26313C519.011 3.53636 518.467 4.4065 518.035 4.62821Z" fill="#FF8E26"/>
<path d="M520.191 6.48296C517.852 6.2648 516.552 6.57564 514.255 7.90794C516.536 7.63495 517.832 7.61116 520.191 7.90794V6.48296Z" fill="#FF8E26"/>
<path d="M520.191 6.48296V7.90794C525.439 10.2548 525.391 19.8318 521.23 29.1149C517.07 38.3979 519.187 47.7729 524.655 53.4786C530.122 59.1843 544.287 59.945 547.939 57.9851C551.59 56.0252 556.385 57.2638 557.526 57.9851C558.668 58.7064 561.508 58.5485 562.32 58.7064C563.129 58.1588 562.664 57.6154 559.809 56.1294C561.813 56.6845 562.349 56.6734 562.32 56.1294C562.515 55.2644 560.517 53.6741 557.526 52.1469C558.641 52.3007 558.978 52.0798 559.352 51.4441C557.078 48.8618 556.588 48.8321 555.243 47.9301C549.73 41.7467 547.026 38.7506 539.492 34.1084C529.905 29.3799 528.964 27.74 530.133 18.1352C530.761 12.9812 532.872 -2.67151 519.861 3.26313C520.174 4.46569 520.507 5.11844 520.191 6.48296Z" fill="#FFFCFA"/>
<path d="M519.861 3.26313C520.174 4.46569 520.507 5.11844 520.191 6.48296M519.861 3.26313C519.812 3.27455 519.909 3.24766 519.861 3.26313ZM519.861 3.26313C519.011 3.53636 518.467 4.4065 518.035 4.62821L514.825 6.26808C514.825 6.26808 513.842 7.59772 514.255 7.90794M519.861 3.26313C532.872 -2.67151 530.761 12.9812 530.133 18.1352C528.964 27.74 529.905 29.3799 539.492 34.1084C547.026 38.7506 549.73 41.7467 555.243 47.9301C556.588 48.8321 557.078 48.8618 559.352 51.4441C558.978 52.0798 558.641 52.3007 557.526 52.1469C560.517 53.6741 562.515 55.2644 562.32 56.1294C562.349 56.6734 561.813 56.6845 559.809 56.1294C562.664 57.6154 563.129 58.1588 562.32 58.7064C561.508 58.5485 558.668 58.7064 557.526 57.9851C556.385 57.2638 551.59 56.0252 547.939 57.9851C544.287 59.945 530.122 59.1843 524.655 53.4786C519.187 47.7729 517.07 38.3979 521.23 29.1149C525.391 19.8318 525.439 10.2548 520.191 7.90794M514.255 7.90794C516.552 6.57564 517.852 6.2648 520.191 6.48296M514.255 7.90794C516.536 7.63495 517.832 7.61116 520.191 7.90794M520.191 6.48296V7.90794" stroke="black" stroke-width="0.5"/>
<ellipse cx="521.23" cy="3.81424" rx="0.228276" ry="0.468533" fill="black"/>
<ellipse cx="522.6" cy="4.28274" rx="0.228276" ry="0.468533" fill="black"/>
<path d="M531.959 38.0171C540.082 41.0636 547.939 46.4507 547.026 49.2619C546.112 52.0731 545.686 54.284 539.949 53.6025C534.885 52.2553 527.85 44.4661 527.85 44.4661" stroke="black" stroke-width="0.5"/>
<path d="M585.095 57.4706C585.4 62.4087 586.247 66.6654 584.423 67.3305C582.6 67.9956 577.191 68.9862 577.593 69.6225C579.292 70.7467 579.818 70.9197 580.206 70.6295C587.576 71.5839 587.942 70.9066 588.765 70.1004C588.765 70.1004 590.056 67.9596 589.512 67.0158C588.968 66.072 588.437 64.5114 588.437 64.5114L588.613 58.1919C588.613 58.1919 587.155 58.0264 585.095 57.4706Z" fill="#FF6726" stroke="black" stroke-width="0.5"/>
<path d="M591.458 57.5526C591.86 62.4833 592.791 66.7214 590.981 67.4244C589.171 68.1274 585.4 67.8864 584.198 69.8583C585.918 70.9469 587.075 71.057 587.458 70.7588C594.845 71.5592 594.57 70.9264 595.377 70.1032C595.377 70.1032 596.625 67.936 596.063 67.0037C595.5 66.0714 594.938 64.5222 594.938 64.5222L594.662 57.5224C594.662 57.5224 593.524 57.6165 591.458 57.5526Z" fill="#FF6726" stroke="black" stroke-width="0.5"/>
<path d="M569.359 4.62821L566.15 6.26808C566.15 6.26808 565.167 7.59772 565.58 7.90794C567.877 6.57564 569.177 6.2648 571.515 6.48296C571.832 5.11844 571.498 4.46569 571.185 3.26313C570.336 3.53636 569.791 4.4065 569.359 4.62821Z" fill="#FF8E26"/>
<path d="M571.515 6.48296C569.177 6.2648 567.877 6.57564 565.58 7.90794C567.86 7.63495 569.157 7.61116 571.515 7.90794V6.48296Z" fill="#FF8E26"/>
<path d="M571.515 6.48296V7.90794C576.764 10.2548 576.716 19.8318 572.555 29.1149C568.394 38.3979 570.512 47.7729 575.979 53.4786C581.447 59.1843 595.612 59.945 599.263 57.9851C602.915 56.0252 607.71 57.2638 608.851 57.9851C609.992 58.7064 612.832 58.5485 613.645 58.7064C614.453 58.1588 613.989 57.6154 611.134 56.1294C613.137 56.6845 613.674 56.6734 613.645 56.1294C613.84 55.2644 611.842 53.6741 608.851 52.1469C609.965 52.3007 610.302 52.0798 610.677 51.4441C608.403 48.8618 607.913 48.8321 606.568 47.9301C601.054 41.7467 598.35 38.7506 590.817 34.1084C581.23 29.3799 580.289 27.74 581.458 18.1352C582.085 12.9812 584.197 -2.67151 571.185 3.26313C571.498 4.46569 571.832 5.11844 571.515 6.48296Z" fill="#FFFCFA"/>
<path d="M571.185 3.26313C571.498 4.46569 571.832 5.11844 571.515 6.48296M571.185 3.26313C571.137 3.27455 571.234 3.24766 571.185 3.26313ZM571.185 3.26313C570.336 3.53636 569.791 4.4065 569.359 4.62821L566.15 6.26808C566.15 6.26808 565.167 7.59772 565.58 7.90794M571.185 3.26313C584.197 -2.67151 582.085 12.9812 581.458 18.1352C580.289 27.74 581.23 29.3799 590.817 34.1084C598.35 38.7506 601.054 41.7467 606.568 47.9301C607.913 48.8321 608.403 48.8618 610.677 51.4441C610.302 52.0798 609.965 52.3007 608.851 52.1469C611.842 53.6741 613.84 55.2644 613.645 56.1294C613.674 56.6734 613.137 56.6845 611.134 56.1294C613.989 57.6154 614.453 58.1588 613.645 58.7064C612.832 58.5485 609.992 58.7064 608.851 57.9851C607.71 57.2638 602.915 56.0252 599.263 57.9851C595.612 59.945 581.447 59.1843 575.979 53.4786C570.512 47.7729 568.394 38.3979 572.555 29.1149C576.716 19.8318 576.764 10.2548 571.515 7.90794M565.58 7.90794C567.877 6.57564 569.177 6.2648 571.515 6.48296M565.58 7.90794C567.86 7.63495 569.157 7.61116 571.515 7.90794M571.515 6.48296V7.90794" stroke="black" stroke-width="0.5"/>
<ellipse cx="572.555" cy="3.81424" rx="0.228276" ry="0.468533" fill="black"/>
<ellipse cx="573.925" cy="4.28274" rx="0.228276" ry="0.468533" fill="black"/>
<path d="M583.284 38.0171C591.407 41.0636 599.263 46.4507 598.35 49.2619C597.437 52.0731 597.01 54.284 591.274 53.6025C586.21 52.2553 579.175 44.4661 579.175 44.4661" stroke="black" stroke-width="0.5"/>
<path d="M121.724 55.3923C118.96 59.4469 117.036 63.3164 115.206 62.6691C113.376 62.0218 108.546 59.3339 108.474 60.0889C109.119 62.0546 109.424 62.5265 109.905 62.5485C115.085 68.0117 115.783 67.7169 116.916 67.613C116.916 67.613 119.227 66.7664 119.375 65.6804C119.523 64.5944 120.056 63.0343 120.056 63.0343L124.035 58.2078C124.035 58.2078 122.996 57.1451 121.724 55.3923Z" fill="#FF6726" stroke="black" stroke-width="0.5"/>
<path d="M126.384 58.6328C126.398 63.5808 126.994 67.882 125.135 68.4333C123.276 68.9847 119.536 68.4333 118.183 70.2997C119.813 71.5267 120.957 71.7318 121.362 71.4662C128.662 72.8736 128.438 72.2202 129.306 71.4662C129.306 71.4662 130.721 69.409 130.233 68.4333C129.745 67.4576 129.306 65.867 129.306 65.867L129.58 58.8671C129.58 58.8671 128.438 58.8671 126.384 58.6328Z" fill="#FF6726" stroke="black" stroke-width="0.5"/>
<path d="M107.437 4.62821L104.227 6.26808C104.227 6.26808 103.244 7.59772 103.658 7.90794C105.954 6.57564 107.254 6.2648 109.593 6.48296C109.909 5.11844 109.576 4.46569 109.263 3.26313C108.413 3.53636 107.869 4.4065 107.437 4.62821Z" fill="#FF8E26"/>
<path d="M109.593 6.48296C107.254 6.2648 105.954 6.57564 103.658 7.90794C105.938 7.63495 107.234 7.61116 109.593 7.90794V6.48296Z" fill="#FF8E26"/>
<path d="M109.593 6.48296V7.90794C114.841 10.2548 114.793 19.8318 110.633 29.1149C106.472 38.3979 108.589 47.7729 114.057 53.4786C119.524 59.1843 133.689 59.945 137.341 57.9851C140.993 56.0252 145.787 57.2638 146.928 57.9851C148.07 58.7064 150.91 58.5485 151.722 58.7064C152.531 58.1588 152.067 57.6154 149.211 56.1294C151.215 56.6845 151.751 56.6734 151.722 56.1294C151.917 55.2644 149.919 53.6741 146.928 52.1469C148.043 52.3007 148.38 52.0798 148.755 51.4441C146.481 48.8618 145.99 48.8321 144.646 47.9301C139.132 41.7467 136.428 38.7506 128.895 34.1084C119.307 29.3799 118.366 27.74 119.535 18.1352C120.163 12.9812 122.275 -2.67151 109.263 3.26313C109.576 4.46569 109.909 5.11844 109.593 6.48296Z" fill="#FFFCFA"/>
<path d="M109.263 3.26313C109.576 4.46569 109.909 5.11844 109.593 6.48296M109.263 3.26313C109.214 3.27455 109.311 3.24766 109.263 3.26313ZM109.263 3.26313C108.413 3.53636 107.869 4.4065 107.437 4.62821L104.227 6.26808C104.227 6.26808 103.244 7.59772 103.658 7.90794M109.263 3.26313C122.275 -2.67151 120.163 12.9812 119.535 18.1352C118.366 27.74 119.307 29.3799 128.895 34.1084C136.428 38.7506 139.132 41.7467 144.646 47.9301C145.99 48.8321 146.481 48.8618 148.755 51.4441C148.38 52.0798 148.043 52.3007 146.928 52.1469C149.919 53.6741 151.917 55.2644 151.722 56.1294C151.751 56.6734 151.215 56.6845 149.211 56.1294C152.067 57.6154 152.531 58.1588 151.722 58.7064C150.91 58.5485 148.07 58.7064 146.928 57.9851C145.787 57.2638 140.993 56.0252 137.341 57.9851C133.689 59.945 119.524 59.1843 114.057 53.4786C108.589 47.7729 106.472 38.3979 110.633 29.1149C114.793 19.8318 114.841 10.2548 109.593 7.90794M103.658 7.90794C105.954 6.57564 107.254 6.2648 109.593 6.48296M103.658 7.90794C105.938 7.63495 107.234 7.61116 109.593 7.90794M109.593 6.48296V7.90794" stroke="black" stroke-width="0.5"/>
<ellipse cx="110.633" cy="3.81424" rx="0.228276" ry="0.468533" fill="black"/>
<ellipse cx="112.002" cy="4.28274" rx="0.228276" ry="0.468533" fill="black"/>
<path d="M121.362 38.0171C129.484 41.0636 137.341 46.4507 136.428 49.2619C135.515 52.0731 135.088 54.284 129.351 53.6025C124.287 52.2553 117.253 44.4661 117.253 44.4661" stroke="black" stroke-width="0.5"/>
</svg>
