<svg width="30" height="30" viewBox="0 0 30 30" fill="none" xmlns="http://www.w3.org/2000/svg">
<mask id="mask0_21_56" style="mask-type:alpha" maskUnits="userSpaceOnUse" x="0" y="0" width="30" height="30">
<rect width="30" height="30" fill="#D9D9D9"/>
</mask>
<g mask="url(#mask0_21_56)">
<path d="M8.38933 7.31289L3.10485 9.9438C3.10485 9.9438 1.48651 12.077 2.1671 12.5747C5.9486 10.4372 8.08868 9.93853 11.939 10.2885C12.4601 8.0994 11.9113 7.05215 11.3961 5.12284C9.99699 5.5612 9.10074 6.95719 8.38933 7.31289Z" fill="#FF8E26"/>
<path d="M11.939 10.2885C8.08868 9.93853 5.9486 10.4372 2.1671 12.5747C5.92141 12.1367 8.05552 12.0986 11.939 12.5747V10.2885Z" fill="#FF8E26"/>
<path d="M11.939 10.2885V12.5747C20.5804 16.3398 20.5014 31.7047 13.6511 46.5978C6.80086 61.4909 10.2871 76.5315 19.2888 85.6854C28.2905 94.8393 51.6122 96.0598 57.6247 92.9154C63.6372 89.7711 71.5309 91.7583 73.4101 92.9154C75.2894 94.0726 79.9654 93.8193 81.3028 94.0726C82.6341 93.1941 81.8699 92.3223 77.1686 89.9383C80.4673 90.8287 81.3507 90.8109 81.3028 89.9383C81.6241 88.5505 78.334 85.9992 73.4101 83.549C75.2448 83.7958 75.7998 83.4414 76.4169 82.4214C72.6727 78.2785 71.8653 78.2308 69.6517 76.7838C60.5734 66.8634 56.1214 62.0567 43.7186 54.6091C27.9332 47.023 26.3841 44.3921 28.309 28.9827C29.3419 20.714 32.8191 -4.39833 11.3961 5.12284C11.9113 7.05215 12.4601 8.0994 11.939 10.2885Z" fill="#FFFCFA"/>
<path d="M11.3961 5.12284C11.9113 7.05215 12.4601 8.0994 11.939 10.2885M11.3961 5.12284C11.3156 5.14116 11.4753 5.09803 11.3961 5.12284ZM11.3961 5.12284C9.99699 5.5612 9.10074 6.95719 8.38933 7.31289L3.10485 9.9438C3.10485 9.9438 1.48651 12.077 2.1671 12.5747M11.3961 5.12284C32.8191 -4.39833 29.3419 20.714 28.309 28.9827C26.3841 44.3921 27.9332 47.023 43.7186 54.6091C56.1214 62.0567 60.5734 66.8634 69.6517 76.7838C71.8653 78.2308 72.6727 78.2785 76.4169 82.4214C75.7998 83.4414 75.2448 83.7958 73.4101 83.549C78.334 85.9992 81.6241 88.5505 81.3028 89.9383C81.3507 90.8109 80.4673 90.8287 77.1686 89.9383C81.8699 92.3223 82.6341 93.1941 81.3028 94.0726C79.9654 93.8193 75.2894 94.0726 73.4101 92.9154C71.5309 91.7583 63.6372 89.7711 57.6247 92.9154C51.6122 96.0598 28.2905 94.8393 19.2888 85.6854C10.2871 76.5315 6.80086 61.4909 13.6511 46.5978C20.5014 31.7047 20.5804 16.3398 11.939 12.5747M2.1671 12.5747C5.9486 10.4372 8.08868 9.93853 11.939 10.2885M2.1671 12.5747C5.92141 12.1367 8.05552 12.0986 11.939 12.5747M11.939 10.2885V12.5747" stroke="black" stroke-width="0.5"/>
<path d="M13.8774 5L17.5521 8.99797M18.0157 6.85785L13 6.95433" stroke="black" stroke-width="0.5" stroke-linecap="round"/>
<path d="M9.10631 10.3591C8.84391 11.6164 9.1063 13.1442 9.46911 13.542C9.83191 13.9398 11.3632 14.799 10.9203 13.542C10.4766 12.3006 10.458 11.6024 10.5575 10.3591C10.5575 10.3591 10.1153 10.2 9.83191 10.2C9.54854 10.2 9.10631 10.3591 9.10631 10.3591Z" fill="#F89999" stroke="black" stroke-width="0.5" stroke-linecap="round"/>
</g>
</svg>
