<svg width="611" height="73" viewBox="0 0 611 73" fill="none" xmlns="http://www.w3.org/2000/svg">
<path d="M13.7636 57.2947C13.7779 62.2426 14.3742 66.5438 12.515 67.0952C10.6558 67.6466 5.1986 68.3016 5.56314 68.9615C7.19237 70.1885 7.7072 70.3937 8.11216 70.128C15.4127 71.5355 15.8181 70.8821 16.6861 70.128C16.6861 70.128 18.1009 68.0709 17.6131 67.0952C17.1252 66.1195 16.6861 64.5289 16.6861 64.5289L17.2328 58.2317C17.2328 58.2317 15.787 57.9766 13.7636 57.2947Z" fill="#FF6726" stroke="black" stroke-width="0.5"/>
<path d="M19.6988 58.7004C19.7131 63.6484 20.3093 67.9496 18.4502 68.501C16.591 69.0523 11.1337 69.7074 11.4983 70.3673C13.1275 71.5943 13.6423 71.7994 14.0473 71.5338C21.3478 72.9412 21.7533 72.2878 22.6213 71.5338C22.6213 71.5338 24.036 69.4766 23.5482 68.5009C23.0604 67.5252 22.6213 65.9347 22.6213 65.9347L22.8946 58.9347C22.8946 58.9347 21.7533 58.9347 19.6988 58.7004Z" fill="#FF6726" stroke="black" stroke-width="0.5"/>
<path d="M5.91884 8.37659L6.01413 9.11469C6.01413 9.11469 6.45783 10.1973 6.87119 10.5075C9.16797 9.17523 7.99846 7.82264 8.75574 6.2956C9.07223 4.93108 6.25574 5.79559 6.01413 5.89852C5.16437 6.17175 5.91884 7.91626 5.91884 8.37659Z" fill="#FF8E26"/>
<path fill-rule="evenodd" clip-rule="evenodd" d="M2.371 5.00684C8.871 -5.99299 14.2761 8.15153 12.8712 17.5077C11.4344 27.0762 12.6222 29.4475 22.2098 34.176C29.7429 38.8182 32.4469 41.8142 37.9608 47.9977C39.3053 48.8996 39.7956 48.9293 42.0698 51.5117C41.6949 52.1474 41.3579 52.3683 40.2436 52.2145C43.2341 53.7417 45.2325 55.332 45.0373 56.197C45.0664 56.7409 44.5299 56.752 42.5263 56.197C45.3817 57.683 45.8459 58.2264 45.0373 58.7739C44.225 58.6161 41.3849 58.774 40.2436 58.0527C39.1022 57.3314 34.3078 56.0928 30.656 58.0527C27.0042 60.0126 12.8392 59.2519 7.37187 53.5462C1.90452 47.8404 -1.24963 38.9973 2.91102 29.7143C7.07166 20.4313 2.371 9.00684 2.371 8.37659C2.371 7.74633 1.871 7.00684 2.371 5.00684ZM6.01413 9.11469L5.91884 8.37659C5.91884 7.91626 5.16437 6.17175 6.01413 5.89852C6.25574 5.79559 9.07223 4.93108 8.75574 6.2956C7.99846 7.82264 9.16797 9.17523 6.87119 10.5075C6.45783 10.1973 6.01413 9.11469 6.01413 9.11469Z" fill="#FFFCFA"/>
<path d="M5.91884 8.37659L6.01413 9.11469C6.01413 9.11469 6.45783 10.1973 6.87119 10.5075C9.16797 9.17523 7.99846 7.82264 8.75574 6.2956C9.07223 4.93108 6.25574 5.79559 6.01413 5.89852C5.16437 6.17175 5.91884 7.91626 5.91884 8.37659Z" stroke="black" stroke-width="0.5"/>
<path fill-rule="evenodd" clip-rule="evenodd" d="M2.371 5.00684C8.871 -5.99299 14.2761 8.15153 12.8712 17.5077C11.4344 27.0762 12.6222 29.4475 22.2098 34.176C29.7429 38.8182 32.4469 41.8142 37.9608 47.9977C39.3053 48.8996 39.7956 48.9293 42.0698 51.5117C41.6949 52.1474 41.3579 52.3683 40.2436 52.2145C43.2341 53.7417 45.2325 55.332 45.0373 56.197C45.0664 56.7409 44.5299 56.752 42.5263 56.197C45.3817 57.683 45.8459 58.2264 45.0373 58.7739C44.225 58.6161 41.3849 58.774 40.2436 58.0527C39.1022 57.3314 34.3078 56.0928 30.656 58.0527C27.0042 60.0126 12.8392 59.2519 7.37187 53.5462C1.90452 47.8404 -1.24963 38.9973 2.91102 29.7143C7.07166 20.4313 2.371 9.00684 2.371 8.37659C2.371 7.74633 1.871 7.00684 2.371 5.00684ZM6.01413 9.11469L5.91884 8.37659C5.91884 7.91626 5.16437 6.17175 6.01413 5.89852C6.25574 5.79559 9.07223 4.93108 8.75574 6.2956C7.99846 7.82264 9.16797 9.17523 6.87119 10.5075C6.45783 10.1973 6.01413 9.11469 6.01413 9.11469Z" stroke="black" stroke-width="0.5"/>
<ellipse cx="5.09946" cy="4.4761" rx="0.228276" ry="0.468533" fill="black"/>
<path d="M9.32774 4.47632C9.32774 4.73508 9.22553 4.94485 9.09946 4.94485C8.97339 4.94485 8.87119 4.73508 8.87119 4.47632C8.87119 4.21755 8.97339 4.00779 9.09946 4.00779C9.22553 4.00779 9.32774 4.21755 9.32774 4.47632Z" fill="black"/>
<path d="M14.6767 38.0847C22.7995 41.1312 30.656 46.5183 29.7429 49.3295C28.8298 52.1407 28.4031 54.3517 22.6664 53.6701C17.6025 52.3229 10.5677 44.5337 10.5677 44.5337" stroke="black" stroke-width="0.5"/>
<path d="M270.764 57.2947C270.778 62.2426 271.374 66.5438 269.515 67.0952C267.656 67.6466 262.199 68.3016 262.563 68.9615C264.192 70.1885 264.707 70.3937 265.112 70.128C272.413 71.5355 272.818 70.8821 273.686 70.128C273.686 70.128 275.101 68.0709 274.613 67.0952C274.125 66.1195 273.686 64.5289 273.686 64.5289L274.233 58.2317C274.233 58.2317 272.787 57.9766 270.764 57.2947Z" fill="#FF6726" stroke="black" stroke-width="0.5"/>
<path d="M276.699 58.7004C276.713 63.6484 277.309 67.9496 275.45 68.501C273.591 69.0523 268.134 69.7074 268.498 70.3673C270.128 71.5943 270.642 71.7994 271.047 71.5338C278.348 72.9412 278.753 72.2878 279.621 71.5338C279.621 71.5338 281.036 69.4766 280.548 68.5009C280.06 67.5252 279.621 65.9347 279.621 65.9347L279.895 58.9347C279.895 58.9347 278.753 58.9347 276.699 58.7004Z" fill="#FF6726" stroke="black" stroke-width="0.5"/>
<path d="M262.919 8.37659L263.014 9.11469C263.014 9.11469 263.458 10.1973 263.871 10.5075C266.168 9.17523 264.998 7.82264 265.756 6.2956C266.072 4.93108 263.256 5.79559 263.014 5.89852C262.164 6.17175 262.919 7.91626 262.919 8.37659Z" fill="#FF8E26"/>
<path fill-rule="evenodd" clip-rule="evenodd" d="M259.371 5.00684C265.871 -5.99299 271.276 8.15153 269.871 17.5077C268.434 27.0762 269.622 29.4475 279.21 34.176C286.743 38.8182 289.447 41.8142 294.961 47.9977C296.305 48.8996 296.796 48.9293 299.07 51.5117C298.695 52.1474 298.358 52.3683 297.244 52.2145C300.234 53.7417 302.232 55.332 302.037 56.197C302.066 56.7409 301.53 56.752 299.526 56.197C302.382 57.683 302.846 58.2264 302.037 58.7739C301.225 58.6161 298.385 58.774 297.244 58.0527C296.102 57.3314 291.308 56.0928 287.656 58.0527C284.004 60.0126 269.839 59.2519 264.372 53.5462C258.905 47.8404 255.75 38.9973 259.911 29.7143C264.072 20.4313 259.371 9.00684 259.371 8.37659C259.371 7.74633 258.871 7.00684 259.371 5.00684ZM263.014 9.11469L262.919 8.37659C262.919 7.91626 262.164 6.17175 263.014 5.89852C263.256 5.79559 266.072 4.93108 265.756 6.2956C264.998 7.82264 266.168 9.17523 263.871 10.5075C263.458 10.1973 263.014 9.11469 263.014 9.11469Z" fill="#FFFCFA"/>
<path d="M262.919 8.37659L263.014 9.11469C263.014 9.11469 263.458 10.1973 263.871 10.5075C266.168 9.17523 264.998 7.82264 265.756 6.2956C266.072 4.93108 263.256 5.79559 263.014 5.89852C262.164 6.17175 262.919 7.91626 262.919 8.37659Z" stroke="black" stroke-width="0.5"/>
<path fill-rule="evenodd" clip-rule="evenodd" d="M259.371 5.00684C265.871 -5.99299 271.276 8.15153 269.871 17.5077C268.434 27.0762 269.622 29.4475 279.21 34.176C286.743 38.8182 289.447 41.8142 294.961 47.9977C296.305 48.8996 296.796 48.9293 299.07 51.5117C298.695 52.1474 298.358 52.3683 297.244 52.2145C300.234 53.7417 302.232 55.332 302.037 56.197C302.066 56.7409 301.53 56.752 299.526 56.197C302.382 57.683 302.846 58.2264 302.037 58.7739C301.225 58.6161 298.385 58.774 297.244 58.0527C296.102 57.3314 291.308 56.0928 287.656 58.0527C284.004 60.0126 269.839 59.2519 264.372 53.5462C258.905 47.8404 255.75 38.9973 259.911 29.7143C264.072 20.4313 259.371 9.00684 259.371 8.37659C259.371 7.74633 258.871 7.00684 259.371 5.00684ZM263.014 9.11469L262.919 8.37659C262.919 7.91626 262.164 6.17175 263.014 5.89852C263.256 5.79559 266.072 4.93108 265.756 6.2956C264.998 7.82264 266.168 9.17523 263.871 10.5075C263.458 10.1973 263.014 9.11469 263.014 9.11469Z" stroke="black" stroke-width="0.5"/>
<ellipse cx="262.099" cy="4.4761" rx="0.228276" ry="0.468533" fill="black"/>
<path d="M266.328 4.47632C266.328 4.73508 266.226 4.94485 266.099 4.94485C265.973 4.94485 265.871 4.73508 265.871 4.47632C265.871 4.21755 265.973 4.00779 266.099 4.00779C266.226 4.00779 266.328 4.21755 266.328 4.47632Z" fill="black"/>
<path d="M271.677 38.0847C279.799 41.1312 287.656 46.5183 286.743 49.3295C285.83 52.1407 285.403 54.3517 279.666 53.6701C274.603 52.3229 267.568 44.5337 267.568 44.5337" stroke="black" stroke-width="0.5"/>
<path d="M64.7636 57.2947C64.7779 62.2426 65.3742 66.5438 63.515 67.0952C61.6558 67.6466 56.1986 68.3016 56.5631 68.9615C58.1924 70.1885 58.7072 70.3937 59.1121 70.128C66.4126 71.5355 66.8181 70.8821 67.6861 70.128C67.6861 70.128 69.1009 68.0709 68.613 67.0952C68.1252 66.1195 67.6861 64.5289 67.6861 64.5289L68.2328 58.2317C68.2328 58.2317 66.787 57.9766 64.7636 57.2947Z" fill="#FF6726" stroke="black" stroke-width="0.5"/>
<path d="M70.6988 58.7004C70.713 63.6484 71.3093 67.9496 69.4501 68.501C67.591 69.0523 62.1337 69.7074 62.4983 70.3673C64.1275 71.5943 64.6423 71.7994 65.0473 71.5338C72.3478 72.9412 72.7532 72.2878 73.6213 71.5338C73.6213 71.5338 75.036 69.4766 74.5482 68.5009C74.0604 67.5252 73.6213 65.9347 73.6213 65.9347L73.8946 58.9347C73.8946 58.9347 72.7532 58.9347 70.6988 58.7004Z" fill="#FF6726" stroke="black" stroke-width="0.5"/>
<path d="M56.9188 8.37659L57.0141 9.11469C57.0141 9.11469 57.4578 10.1973 57.8712 10.5075C60.168 9.17523 58.9985 7.82264 59.7557 6.2956C60.0722 4.93108 57.2557 5.79559 57.0141 5.89852C56.1644 6.17175 56.9188 7.91626 56.9188 8.37659Z" fill="#FF8E26"/>
<path fill-rule="evenodd" clip-rule="evenodd" d="M53.371 5.00684C59.871 -5.99299 65.2761 8.15153 63.8712 17.5077C62.4344 27.0762 63.6222 29.4475 73.2098 34.176C80.7429 38.8182 83.4469 41.8142 88.9608 47.9977C90.3053 48.8996 90.7956 48.9293 93.0698 51.5117C92.6949 52.1474 92.3579 52.3683 91.2436 52.2145C94.2341 53.7417 96.2325 55.332 96.0373 56.197C96.0664 56.7409 95.5299 56.752 93.5263 56.197C96.3817 57.683 96.8459 58.2264 96.0373 58.7739C95.225 58.6161 92.3849 58.774 91.2436 58.0527C90.1022 57.3314 85.3078 56.0928 81.656 58.0527C78.0042 60.0126 63.8392 59.2519 58.3719 53.5462C52.9045 47.8404 49.7504 38.9973 53.911 29.7143C58.0717 20.4313 53.371 9.00684 53.371 8.37659C53.371 7.74633 52.871 7.00684 53.371 5.00684ZM57.0141 9.11469L56.9188 8.37659C56.9188 7.91626 56.1644 6.17175 57.0141 5.89852C57.2557 5.79559 60.0722 4.93108 59.7557 6.2956C58.9985 7.82264 60.168 9.17523 57.8712 10.5075C57.4578 10.1973 57.0141 9.11469 57.0141 9.11469Z" fill="#FFFCFA"/>
<path d="M56.9188 8.37659L57.0141 9.11469C57.0141 9.11469 57.4578 10.1973 57.8712 10.5075C60.168 9.17523 58.9985 7.82264 59.7557 6.2956C60.0722 4.93108 57.2557 5.79559 57.0141 5.89852C56.1644 6.17175 56.9188 7.91626 56.9188 8.37659Z" stroke="black" stroke-width="0.5"/>
<path fill-rule="evenodd" clip-rule="evenodd" d="M53.371 5.00684C59.871 -5.99299 65.2761 8.15153 63.8712 17.5077C62.4344 27.0762 63.6222 29.4475 73.2098 34.176C80.7429 38.8182 83.4469 41.8142 88.9608 47.9977C90.3053 48.8996 90.7956 48.9293 93.0698 51.5117C92.6949 52.1474 92.3579 52.3683 91.2436 52.2145C94.2341 53.7417 96.2325 55.332 96.0373 56.197C96.0664 56.7409 95.5299 56.752 93.5263 56.197C96.3817 57.683 96.8459 58.2264 96.0373 58.7739C95.225 58.6161 92.3849 58.774 91.2436 58.0527C90.1022 57.3314 85.3078 56.0928 81.656 58.0527C78.0042 60.0126 63.8392 59.2519 58.3719 53.5462C52.9045 47.8404 49.7504 38.9973 53.911 29.7143C58.0717 20.4313 53.371 9.00684 53.371 8.37659C53.371 7.74633 52.871 7.00684 53.371 5.00684ZM57.0141 9.11469L56.9188 8.37659C56.9188 7.91626 56.1644 6.17175 57.0141 5.89852C57.2557 5.79559 60.0722 4.93108 59.7557 6.2956C58.9985 7.82264 60.168 9.17523 57.8712 10.5075C57.4578 10.1973 57.0141 9.11469 57.0141 9.11469Z" stroke="black" stroke-width="0.5"/>
<ellipse cx="56.0995" cy="4.4761" rx="0.228276" ry="0.468533" fill="black"/>
<path d="M60.3278 4.47632C60.3278 4.73508 60.2255 4.94485 60.0995 4.94485C59.9734 4.94485 59.8712 4.73508 59.8712 4.47632C59.8712 4.21755 59.9734 4.00779 60.0995 4.00779C60.2255 4.00779 60.3278 4.21755 60.3278 4.47632Z" fill="black"/>
<path d="M65.6767 38.0847C73.7995 41.1312 81.656 46.5183 80.7429 49.3295C79.8298 52.1407 79.403 54.3517 73.6663 53.6701C68.6025 52.3229 61.5677 44.5337 61.5677 44.5337" stroke="black" stroke-width="0.5"/>
<path d="M116.764 57.2947C116.778 62.2426 117.374 66.5438 115.515 67.0952C113.656 67.6466 108.199 68.3016 108.563 68.9615C110.192 70.1885 110.707 70.3937 111.112 70.128C118.413 71.5355 118.818 70.8821 119.686 70.128C119.686 70.128 121.101 68.0709 120.613 67.0952C120.125 66.1195 119.686 64.5289 119.686 64.5289L120.233 58.2317C120.233 58.2317 118.787 57.9766 116.764 57.2947Z" fill="#FF6726" stroke="black" stroke-width="0.5"/>
<path d="M122.699 58.7004C122.713 63.6484 123.309 67.9496 121.45 68.501C119.591 69.0523 114.134 69.7074 114.498 70.3673C116.128 71.5943 116.642 71.7994 117.047 71.5338C124.348 72.9412 124.753 72.2878 125.621 71.5338C125.621 71.5338 127.036 69.4766 126.548 68.5009C126.06 67.5252 125.621 65.9347 125.621 65.9347L125.895 58.9347C125.895 58.9347 124.753 58.9347 122.699 58.7004Z" fill="#FF6726" stroke="black" stroke-width="0.5"/>
<path d="M108.919 8.37659L109.014 9.11469C109.014 9.11469 109.458 10.1973 109.871 10.5075C112.168 9.17523 110.998 7.82264 111.756 6.2956C112.072 4.93108 109.256 5.79559 109.014 5.89852C108.164 6.17175 108.919 7.91626 108.919 8.37659Z" fill="#FF8E26"/>
<path fill-rule="evenodd" clip-rule="evenodd" d="M105.371 5.00684C111.871 -5.99299 117.276 8.15153 115.871 17.5077C114.434 27.0762 115.622 29.4475 125.21 34.176C132.743 38.8182 135.447 41.8142 140.961 47.9977C142.305 48.8996 142.796 48.9293 145.07 51.5117C144.695 52.1474 144.358 52.3683 143.244 52.2145C146.234 53.7417 148.232 55.332 148.037 56.197C148.066 56.7409 147.53 56.752 145.526 56.197C148.382 57.683 148.846 58.2264 148.037 58.7739C147.225 58.6161 144.385 58.774 143.244 58.0527C142.102 57.3314 137.308 56.0928 133.656 58.0527C130.004 60.0126 115.839 59.2519 110.372 53.5462C104.905 47.8404 101.75 38.9973 105.911 29.7143C110.072 20.4313 105.371 9.00684 105.371 8.37659C105.371 7.74633 104.871 7.00684 105.371 5.00684ZM109.014 9.11469L108.919 8.37659C108.919 7.91626 108.164 6.17175 109.014 5.89852C109.256 5.79559 112.072 4.93108 111.756 6.2956C110.998 7.82264 112.168 9.17523 109.871 10.5075C109.458 10.1973 109.014 9.11469 109.014 9.11469Z" fill="#FFFCFA"/>
<path d="M108.919 8.37659L109.014 9.11469C109.014 9.11469 109.458 10.1973 109.871 10.5075C112.168 9.17523 110.998 7.82264 111.756 6.2956C112.072 4.93108 109.256 5.79559 109.014 5.89852C108.164 6.17175 108.919 7.91626 108.919 8.37659Z" stroke="black" stroke-width="0.5"/>
<path fill-rule="evenodd" clip-rule="evenodd" d="M105.371 5.00684C111.871 -5.99299 117.276 8.15153 115.871 17.5077C114.434 27.0762 115.622 29.4475 125.21 34.176C132.743 38.8182 135.447 41.8142 140.961 47.9977C142.305 48.8996 142.796 48.9293 145.07 51.5117C144.695 52.1474 144.358 52.3683 143.244 52.2145C146.234 53.7417 148.232 55.332 148.037 56.197C148.066 56.7409 147.53 56.752 145.526 56.197C148.382 57.683 148.846 58.2264 148.037 58.7739C147.225 58.6161 144.385 58.774 143.244 58.0527C142.102 57.3314 137.308 56.0928 133.656 58.0527C130.004 60.0126 115.839 59.2519 110.372 53.5462C104.905 47.8404 101.75 38.9973 105.911 29.7143C110.072 20.4313 105.371 9.00684 105.371 8.37659C105.371 7.74633 104.871 7.00684 105.371 5.00684ZM109.014 9.11469L108.919 8.37659C108.919 7.91626 108.164 6.17175 109.014 5.89852C109.256 5.79559 112.072 4.93108 111.756 6.2956C110.998 7.82264 112.168 9.17523 109.871 10.5075C109.458 10.1973 109.014 9.11469 109.014 9.11469Z" stroke="black" stroke-width="0.5"/>
<ellipse cx="108.099" cy="4.4761" rx="0.228276" ry="0.468533" fill="black"/>
<path d="M112.328 4.47632C112.328 4.73508 112.226 4.94485 112.099 4.94485C111.973 4.94485 111.871 4.73508 111.871 4.47632C111.871 4.21755 111.973 4.00779 112.099 4.00779C112.226 4.00779 112.328 4.21755 112.328 4.47632Z" fill="black"/>
<path d="M117.677 38.0847C125.799 41.1312 133.656 46.5183 132.743 49.3295C131.83 52.1407 131.403 54.3517 125.666 53.6701C120.603 52.3229 113.568 44.5337 113.568 44.5337" stroke="black" stroke-width="0.5"/>
<path d="M372.764 57.2947C372.778 62.2426 373.374 66.5438 371.515 67.0952C369.656 67.6466 364.199 68.3016 364.563 68.9615C366.192 70.1885 366.707 70.3937 367.112 70.128C374.413 71.5355 374.818 70.8821 375.686 70.128C375.686 70.128 377.101 68.0709 376.613 67.0952C376.125 66.1195 375.686 64.5289 375.686 64.5289L376.233 58.2317C376.233 58.2317 374.787 57.9766 372.764 57.2947Z" fill="#FF6726" stroke="black" stroke-width="0.5"/>
<path d="M378.699 58.7004C378.713 63.6484 379.309 67.9496 377.45 68.501C375.591 69.0523 370.134 69.7074 370.498 70.3673C372.128 71.5943 372.642 71.7994 373.047 71.5338C380.348 72.9412 380.753 72.2878 381.621 71.5338C381.621 71.5338 383.036 69.4766 382.548 68.5009C382.06 67.5252 381.621 65.9347 381.621 65.9347L381.895 58.9347C381.895 58.9347 380.753 58.9347 378.699 58.7004Z" fill="#FF6726" stroke="black" stroke-width="0.5"/>
<path d="M364.919 8.37659L365.014 9.11469C365.014 9.11469 365.458 10.1973 365.871 10.5075C368.168 9.17523 366.998 7.82264 367.756 6.2956C368.072 4.93108 365.256 5.79559 365.014 5.89852C364.164 6.17175 364.919 7.91626 364.919 8.37659Z" fill="#FF8E26"/>
<path fill-rule="evenodd" clip-rule="evenodd" d="M361.371 5.00684C367.871 -5.99299 373.276 8.15153 371.871 17.5077C370.434 27.0762 371.622 29.4475 381.21 34.176C388.743 38.8182 391.447 41.8142 396.961 47.9977C398.305 48.8996 398.796 48.9293 401.07 51.5117C400.695 52.1474 400.358 52.3683 399.244 52.2145C402.234 53.7417 404.232 55.332 404.037 56.197C404.066 56.7409 403.53 56.752 401.526 56.197C404.382 57.683 404.846 58.2264 404.037 58.7739C403.225 58.6161 400.385 58.774 399.244 58.0527C398.102 57.3314 393.308 56.0928 389.656 58.0527C386.004 60.0126 371.839 59.2519 366.372 53.5462C360.905 47.8404 357.75 38.9973 361.911 29.7143C366.072 20.4313 361.371 9.00684 361.371 8.37659C361.371 7.74633 360.871 7.00684 361.371 5.00684ZM365.014 9.11469L364.919 8.37659C364.919 7.91626 364.164 6.17175 365.014 5.89852C365.256 5.79559 368.072 4.93108 367.756 6.2956C366.998 7.82264 368.168 9.17523 365.871 10.5075C365.458 10.1973 365.014 9.11469 365.014 9.11469Z" fill="#FFFCFA"/>
<path d="M364.919 8.37659L365.014 9.11469C365.014 9.11469 365.458 10.1973 365.871 10.5075C368.168 9.17523 366.998 7.82264 367.756 6.2956C368.072 4.93108 365.256 5.79559 365.014 5.89852C364.164 6.17175 364.919 7.91626 364.919 8.37659Z" stroke="black" stroke-width="0.5"/>
<path fill-rule="evenodd" clip-rule="evenodd" d="M361.371 5.00684C367.871 -5.99299 373.276 8.15153 371.871 17.5077C370.434 27.0762 371.622 29.4475 381.21 34.176C388.743 38.8182 391.447 41.8142 396.961 47.9977C398.305 48.8996 398.796 48.9293 401.07 51.5117C400.695 52.1474 400.358 52.3683 399.244 52.2145C402.234 53.7417 404.232 55.332 404.037 56.197C404.066 56.7409 403.53 56.752 401.526 56.197C404.382 57.683 404.846 58.2264 404.037 58.7739C403.225 58.6161 400.385 58.774 399.244 58.0527C398.102 57.3314 393.308 56.0928 389.656 58.0527C386.004 60.0126 371.839 59.2519 366.372 53.5462C360.905 47.8404 357.75 38.9973 361.911 29.7143C366.072 20.4313 361.371 9.00684 361.371 8.37659C361.371 7.74633 360.871 7.00684 361.371 5.00684ZM365.014 9.11469L364.919 8.37659C364.919 7.91626 364.164 6.17175 365.014 5.89852C365.256 5.79559 368.072 4.93108 367.756 6.2956C366.998 7.82264 368.168 9.17523 365.871 10.5075C365.458 10.1973 365.014 9.11469 365.014 9.11469Z" stroke="black" stroke-width="0.5"/>
<ellipse cx="364.099" cy="4.4761" rx="0.228276" ry="0.468533" fill="black"/>
<path d="M368.328 4.47632C368.328 4.73508 368.226 4.94485 368.099 4.94485C367.973 4.94485 367.871 4.73508 367.871 4.47632C367.871 4.21755 367.973 4.00779 368.099 4.00779C368.226 4.00779 368.328 4.21755 368.328 4.47632Z" fill="black"/>
<path d="M373.677 38.0847C381.799 41.1312 389.656 46.5183 388.743 49.3295C387.83 52.1407 387.403 54.3517 381.666 53.6701C376.603 52.3229 369.568 44.5337 369.568 44.5337" stroke="black" stroke-width="0.5"/>
<path d="M218.764 57.2947C218.778 62.2426 219.374 66.5438 217.515 67.0952C215.656 67.6466 210.199 68.3016 210.563 68.9615C212.192 70.1885 212.707 70.3937 213.112 70.128C220.413 71.5355 220.818 70.8821 221.686 70.128C221.686 70.128 223.101 68.0709 222.613 67.0952C222.125 66.1195 221.686 64.5289 221.686 64.5289L222.233 58.2317C222.233 58.2317 220.787 57.9766 218.764 57.2947Z" fill="#FF6726" stroke="black" stroke-width="0.5"/>
<path d="M224.699 58.7004C224.713 63.6484 225.309 67.9496 223.45 68.501C221.591 69.0523 216.134 69.7074 216.498 70.3673C218.128 71.5943 218.642 71.7994 219.047 71.5338C226.348 72.9412 226.753 72.2878 227.621 71.5338C227.621 71.5338 229.036 69.4766 228.548 68.5009C228.06 67.5252 227.621 65.9347 227.621 65.9347L227.895 58.9347C227.895 58.9347 226.753 58.9347 224.699 58.7004Z" fill="#FF6726" stroke="black" stroke-width="0.5"/>
<path d="M210.919 8.37659L211.014 9.11469C211.014 9.11469 211.458 10.1973 211.871 10.5075C214.168 9.17523 212.998 7.82264 213.756 6.2956C214.072 4.93108 211.256 5.79559 211.014 5.89852C210.164 6.17175 210.919 7.91626 210.919 8.37659Z" fill="#FF8E26"/>
<path fill-rule="evenodd" clip-rule="evenodd" d="M207.371 5.00684C213.871 -5.99299 219.276 8.15153 217.871 17.5077C216.434 27.0762 217.622 29.4475 227.21 34.176C234.743 38.8182 237.447 41.8142 242.961 47.9977C244.305 48.8996 244.796 48.9293 247.07 51.5117C246.695 52.1474 246.358 52.3683 245.244 52.2145C248.234 53.7417 250.232 55.332 250.037 56.197C250.066 56.7409 249.53 56.752 247.526 56.197C250.382 57.683 250.846 58.2264 250.037 58.7739C249.225 58.6161 246.385 58.774 245.244 58.0527C244.102 57.3314 239.308 56.0928 235.656 58.0527C232.004 60.0126 217.839 59.2519 212.372 53.5462C206.905 47.8404 203.75 38.9973 207.911 29.7143C212.072 20.4313 207.371 9.00684 207.371 8.37659C207.371 7.74633 206.871 7.00684 207.371 5.00684ZM211.014 9.11469L210.919 8.37659C210.919 7.91626 210.164 6.17175 211.014 5.89852C211.256 5.79559 214.072 4.93108 213.756 6.2956C212.998 7.82264 214.168 9.17523 211.871 10.5075C211.458 10.1973 211.014 9.11469 211.014 9.11469Z" fill="#FFFCFA"/>
<path d="M210.919 8.37659L211.014 9.11469C211.014 9.11469 211.458 10.1973 211.871 10.5075C214.168 9.17523 212.998 7.82264 213.756 6.2956C214.072 4.93108 211.256 5.79559 211.014 5.89852C210.164 6.17175 210.919 7.91626 210.919 8.37659Z" stroke="black" stroke-width="0.5"/>
<path fill-rule="evenodd" clip-rule="evenodd" d="M207.371 5.00684C213.871 -5.99299 219.276 8.15153 217.871 17.5077C216.434 27.0762 217.622 29.4475 227.21 34.176C234.743 38.8182 237.447 41.8142 242.961 47.9977C244.305 48.8996 244.796 48.9293 247.07 51.5117C246.695 52.1474 246.358 52.3683 245.244 52.2145C248.234 53.7417 250.232 55.332 250.037 56.197C250.066 56.7409 249.53 56.752 247.526 56.197C250.382 57.683 250.846 58.2264 250.037 58.7739C249.225 58.6161 246.385 58.774 245.244 58.0527C244.102 57.3314 239.308 56.0928 235.656 58.0527C232.004 60.0126 217.839 59.2519 212.372 53.5462C206.905 47.8404 203.75 38.9973 207.911 29.7143C212.072 20.4313 207.371 9.00684 207.371 8.37659C207.371 7.74633 206.871 7.00684 207.371 5.00684ZM211.014 9.11469L210.919 8.37659C210.919 7.91626 210.164 6.17175 211.014 5.89852C211.256 5.79559 214.072 4.93108 213.756 6.2956C212.998 7.82264 214.168 9.17523 211.871 10.5075C211.458 10.1973 211.014 9.11469 211.014 9.11469Z" stroke="black" stroke-width="0.5"/>
<ellipse cx="210.099" cy="4.4761" rx="0.228276" ry="0.468533" fill="black"/>
<path d="M214.328 4.47632C214.328 4.73508 214.226 4.94485 214.099 4.94485C213.973 4.94485 213.871 4.73508 213.871 4.47632C213.871 4.21755 213.973 4.00779 214.099 4.00779C214.226 4.00779 214.328 4.21755 214.328 4.47632Z" fill="black"/>
<path d="M219.677 38.0847C227.799 41.1312 235.656 46.5183 234.743 49.3295C233.83 52.1407 233.403 54.3517 227.666 53.6701C222.603 52.3229 215.568 44.5337 215.568 44.5337" stroke="black" stroke-width="0.5"/>
<path d="M167.764 57.2947C167.778 62.2426 168.374 66.5438 166.515 67.0952C164.656 67.6466 159.199 68.3016 159.563 68.9615C161.192 70.1885 161.707 70.3937 162.112 70.128C169.413 71.5355 169.818 70.8821 170.686 70.128C170.686 70.128 172.101 68.0709 171.613 67.0952C171.125 66.1195 170.686 64.5289 170.686 64.5289L171.233 58.2317C171.233 58.2317 169.787 57.9766 167.764 57.2947Z" fill="#FF6726" stroke="black" stroke-width="0.5"/>
<path d="M173.699 58.7004C173.713 63.6484 174.309 67.9496 172.45 68.501C170.591 69.0523 165.134 69.7074 165.498 70.3673C167.128 71.5943 167.642 71.7994 168.047 71.5338C175.348 72.9412 175.753 72.2878 176.621 71.5338C176.621 71.5338 178.036 69.4766 177.548 68.5009C177.06 67.5252 176.621 65.9347 176.621 65.9347L176.895 58.9347C176.895 58.9347 175.753 58.9347 173.699 58.7004Z" fill="#FF6726" stroke="black" stroke-width="0.5"/>
<path d="M159.919 8.37659L160.014 9.11469C160.014 9.11469 160.458 10.1973 160.871 10.5075C163.168 9.17523 161.998 7.82264 162.756 6.2956C163.072 4.93108 160.256 5.79559 160.014 5.89852C159.164 6.17175 159.919 7.91626 159.919 8.37659Z" fill="#FF8E26"/>
<path fill-rule="evenodd" clip-rule="evenodd" d="M156.371 5.00684C162.871 -5.99299 168.276 8.15153 166.871 17.5077C165.434 27.0762 166.622 29.4475 176.21 34.176C183.743 38.8182 186.447 41.8142 191.961 47.9977C193.305 48.8996 193.796 48.9293 196.07 51.5117C195.695 52.1474 195.358 52.3683 194.244 52.2145C197.234 53.7417 199.232 55.332 199.037 56.197C199.066 56.7409 198.53 56.752 196.526 56.197C199.382 57.683 199.846 58.2264 199.037 58.7739C198.225 58.6161 195.385 58.774 194.244 58.0527C193.102 57.3314 188.308 56.0928 184.656 58.0527C181.004 60.0126 166.839 59.2519 161.372 53.5462C155.905 47.8404 152.75 38.9973 156.911 29.7143C161.072 20.4313 156.371 9.00684 156.371 8.37659C156.371 7.74633 155.871 7.00684 156.371 5.00684ZM160.014 9.11469L159.919 8.37659C159.919 7.91626 159.164 6.17175 160.014 5.89852C160.256 5.79559 163.072 4.93108 162.756 6.2956C161.998 7.82264 163.168 9.17523 160.871 10.5075C160.458 10.1973 160.014 9.11469 160.014 9.11469Z" fill="#FFFCFA"/>
<path d="M159.919 8.37659L160.014 9.11469C160.014 9.11469 160.458 10.1973 160.871 10.5075C163.168 9.17523 161.998 7.82264 162.756 6.2956C163.072 4.93108 160.256 5.79559 160.014 5.89852C159.164 6.17175 159.919 7.91626 159.919 8.37659Z" stroke="black" stroke-width="0.5"/>
<path fill-rule="evenodd" clip-rule="evenodd" d="M156.371 5.00684C162.871 -5.99299 168.276 8.15153 166.871 17.5077C165.434 27.0762 166.622 29.4475 176.21 34.176C183.743 38.8182 186.447 41.8142 191.961 47.9977C193.305 48.8996 193.796 48.9293 196.07 51.5117C195.695 52.1474 195.358 52.3683 194.244 52.2145C197.234 53.7417 199.232 55.332 199.037 56.197C199.066 56.7409 198.53 56.752 196.526 56.197C199.382 57.683 199.846 58.2264 199.037 58.7739C198.225 58.6161 195.385 58.774 194.244 58.0527C193.102 57.3314 188.308 56.0928 184.656 58.0527C181.004 60.0126 166.839 59.2519 161.372 53.5462C155.905 47.8404 152.75 38.9973 156.911 29.7143C161.072 20.4313 156.371 9.00684 156.371 8.37659C156.371 7.74633 155.871 7.00684 156.371 5.00684ZM160.014 9.11469L159.919 8.37659C159.919 7.91626 159.164 6.17175 160.014 5.89852C160.256 5.79559 163.072 4.93108 162.756 6.2956C161.998 7.82264 163.168 9.17523 160.871 10.5075C160.458 10.1973 160.014 9.11469 160.014 9.11469Z" stroke="black" stroke-width="0.5"/>
<ellipse cx="159.099" cy="4.4761" rx="0.228276" ry="0.468533" fill="black"/>
<path d="M163.328 4.47632C163.328 4.73508 163.226 4.94485 163.099 4.94485C162.973 4.94485 162.871 4.73508 162.871 4.47632C162.871 4.21755 162.973 4.00779 163.099 4.00779C163.226 4.00779 163.328 4.21755 163.328 4.47632Z" fill="black"/>
<path d="M168.677 38.0847C176.799 41.1312 184.656 46.5183 183.743 49.3295C182.83 52.1407 182.403 54.3517 176.666 53.6701C171.603 52.3229 164.568 44.5337 164.568 44.5337" stroke="black" stroke-width="0.5"/>
<path d="M475.764 57.2947C475.778 62.2426 476.374 66.5438 474.515 67.0952C472.656 67.6466 467.199 68.3016 467.563 68.9615C469.192 70.1885 469.707 70.3937 470.112 70.128C477.413 71.5355 477.818 70.8821 478.686 70.128C478.686 70.128 480.101 68.0709 479.613 67.0952C479.125 66.1195 478.686 64.5289 478.686 64.5289L479.233 58.2317C479.233 58.2317 477.787 57.9766 475.764 57.2947Z" fill="#FF6726" stroke="black" stroke-width="0.5"/>
<path d="M481.699 58.7004C481.713 63.6484 482.309 67.9496 480.45 68.501C478.591 69.0523 473.134 69.7074 473.498 70.3673C475.128 71.5943 475.642 71.7994 476.047 71.5338C483.348 72.9412 483.753 72.2878 484.621 71.5338C484.621 71.5338 486.036 69.4766 485.548 68.5009C485.06 67.5252 484.621 65.9347 484.621 65.9347L484.895 58.9347C484.895 58.9347 483.753 58.9347 481.699 58.7004Z" fill="#FF6726" stroke="black" stroke-width="0.5"/>
<path d="M467.919 8.37659L468.014 9.11469C468.014 9.11469 468.458 10.1973 468.871 10.5075C471.168 9.17523 469.998 7.82264 470.756 6.2956C471.072 4.93108 468.256 5.79559 468.014 5.89852C467.164 6.17175 467.919 7.91626 467.919 8.37659Z" fill="#FF8E26"/>
<path fill-rule="evenodd" clip-rule="evenodd" d="M464.371 5.00684C470.871 -5.99299 476.276 8.15153 474.871 17.5077C473.434 27.0762 474.622 29.4475 484.21 34.176C491.743 38.8182 494.447 41.8142 499.961 47.9977C501.305 48.8996 501.796 48.9293 504.07 51.5117C503.695 52.1474 503.358 52.3683 502.244 52.2145C505.234 53.7417 507.232 55.332 507.037 56.197C507.066 56.7409 506.53 56.752 504.526 56.197C507.382 57.683 507.846 58.2264 507.037 58.7739C506.225 58.6161 503.385 58.774 502.244 58.0527C501.102 57.3314 496.308 56.0928 492.656 58.0527C489.004 60.0126 474.839 59.2519 469.372 53.5462C463.905 47.8404 460.75 38.9973 464.911 29.7143C469.072 20.4313 464.371 9.00684 464.371 8.37659C464.371 7.74633 463.871 7.00684 464.371 5.00684ZM468.014 9.11469L467.919 8.37659C467.919 7.91626 467.164 6.17175 468.014 5.89852C468.256 5.79559 471.072 4.93108 470.756 6.2956C469.998 7.82264 471.168 9.17523 468.871 10.5075C468.458 10.1973 468.014 9.11469 468.014 9.11469Z" fill="#FFFCFA"/>
<path d="M467.919 8.37659L468.014 9.11469C468.014 9.11469 468.458 10.1973 468.871 10.5075C471.168 9.17523 469.998 7.82264 470.756 6.2956C471.072 4.93108 468.256 5.79559 468.014 5.89852C467.164 6.17175 467.919 7.91626 467.919 8.37659Z" stroke="black" stroke-width="0.5"/>
<path fill-rule="evenodd" clip-rule="evenodd" d="M464.371 5.00684C470.871 -5.99299 476.276 8.15153 474.871 17.5077C473.434 27.0762 474.622 29.4475 484.21 34.176C491.743 38.8182 494.447 41.8142 499.961 47.9977C501.305 48.8996 501.796 48.9293 504.07 51.5117C503.695 52.1474 503.358 52.3683 502.244 52.2145C505.234 53.7417 507.232 55.332 507.037 56.197C507.066 56.7409 506.53 56.752 504.526 56.197C507.382 57.683 507.846 58.2264 507.037 58.7739C506.225 58.6161 503.385 58.774 502.244 58.0527C501.102 57.3314 496.308 56.0928 492.656 58.0527C489.004 60.0126 474.839 59.2519 469.372 53.5462C463.905 47.8404 460.75 38.9973 464.911 29.7143C469.072 20.4313 464.371 9.00684 464.371 8.37659C464.371 7.74633 463.871 7.00684 464.371 5.00684ZM468.014 9.11469L467.919 8.37659C467.919 7.91626 467.164 6.17175 468.014 5.89852C468.256 5.79559 471.072 4.93108 470.756 6.2956C469.998 7.82264 471.168 9.17523 468.871 10.5075C468.458 10.1973 468.014 9.11469 468.014 9.11469Z" stroke="black" stroke-width="0.5"/>
<ellipse cx="467.099" cy="4.4761" rx="0.228276" ry="0.468533" fill="black"/>
<path d="M471.328 4.47632C471.328 4.73508 471.226 4.94485 471.099 4.94485C470.973 4.94485 470.871 4.73508 470.871 4.47632C470.871 4.21755 470.973 4.00779 471.099 4.00779C471.226 4.00779 471.328 4.21755 471.328 4.47632Z" fill="black"/>
<path d="M476.677 38.0847C484.799 41.1312 492.656 46.5183 491.743 49.3295C490.83 52.1407 490.403 54.3517 484.666 53.6701C479.603 52.3229 472.568 44.5337 472.568 44.5337" stroke="black" stroke-width="0.5"/>
<path d="M321.764 57.2947C321.778 62.2426 322.374 66.5438 320.515 67.0952C318.656 67.6466 313.199 68.3016 313.563 68.9615C315.192 70.1885 315.707 70.3937 316.112 70.128C323.413 71.5355 323.818 70.8821 324.686 70.128C324.686 70.128 326.101 68.0709 325.613 67.0952C325.125 66.1195 324.686 64.5289 324.686 64.5289L325.233 58.2317C325.233 58.2317 323.787 57.9766 321.764 57.2947Z" fill="#FF6726" stroke="black" stroke-width="0.5"/>
<path d="M327.699 58.7004C327.713 63.6484 328.309 67.9496 326.45 68.501C324.591 69.0523 319.134 69.7074 319.498 70.3673C321.128 71.5943 321.642 71.7994 322.047 71.5338C329.348 72.9412 329.753 72.2878 330.621 71.5338C330.621 71.5338 332.036 69.4766 331.548 68.5009C331.06 67.5252 330.621 65.9347 330.621 65.9347L330.895 58.9347C330.895 58.9347 329.753 58.9347 327.699 58.7004Z" fill="#FF6726" stroke="black" stroke-width="0.5"/>
<path d="M313.919 8.37659L314.014 9.11469C314.014 9.11469 314.458 10.1973 314.871 10.5075C317.168 9.17523 315.998 7.82264 316.756 6.2956C317.072 4.93108 314.256 5.79559 314.014 5.89852C313.164 6.17175 313.919 7.91626 313.919 8.37659Z" fill="#FF8E26"/>
<path fill-rule="evenodd" clip-rule="evenodd" d="M310.371 5.00684C316.871 -5.99299 322.276 8.15153 320.871 17.5077C319.434 27.0762 320.622 29.4475 330.21 34.176C337.743 38.8182 340.447 41.8142 345.961 47.9977C347.305 48.8996 347.796 48.9293 350.07 51.5117C349.695 52.1474 349.358 52.3683 348.244 52.2145C351.234 53.7417 353.232 55.332 353.037 56.197C353.066 56.7409 352.53 56.752 350.526 56.197C353.382 57.683 353.846 58.2264 353.037 58.7739C352.225 58.6161 349.385 58.774 348.244 58.0527C347.102 57.3314 342.308 56.0928 338.656 58.0527C335.004 60.0126 320.839 59.2519 315.372 53.5462C309.905 47.8404 306.75 38.9973 310.911 29.7143C315.072 20.4313 310.371 9.00684 310.371 8.37659C310.371 7.74633 309.871 7.00684 310.371 5.00684ZM314.014 9.11469L313.919 8.37659C313.919 7.91626 313.164 6.17175 314.014 5.89852C314.256 5.79559 317.072 4.93108 316.756 6.2956C315.998 7.82264 317.168 9.17523 314.871 10.5075C314.458 10.1973 314.014 9.11469 314.014 9.11469Z" fill="#FFFCFA"/>
<path d="M313.919 8.37659L314.014 9.11469C314.014 9.11469 314.458 10.1973 314.871 10.5075C317.168 9.17523 315.998 7.82264 316.756 6.2956C317.072 4.93108 314.256 5.79559 314.014 5.89852C313.164 6.17175 313.919 7.91626 313.919 8.37659Z" stroke="black" stroke-width="0.5"/>
<path fill-rule="evenodd" clip-rule="evenodd" d="M310.371 5.00684C316.871 -5.99299 322.276 8.15153 320.871 17.5077C319.434 27.0762 320.622 29.4475 330.21 34.176C337.743 38.8182 340.447 41.8142 345.961 47.9977C347.305 48.8996 347.796 48.9293 350.07 51.5117C349.695 52.1474 349.358 52.3683 348.244 52.2145C351.234 53.7417 353.232 55.332 353.037 56.197C353.066 56.7409 352.53 56.752 350.526 56.197C353.382 57.683 353.846 58.2264 353.037 58.7739C352.225 58.6161 349.385 58.774 348.244 58.0527C347.102 57.3314 342.308 56.0928 338.656 58.0527C335.004 60.0126 320.839 59.2519 315.372 53.5462C309.905 47.8404 306.75 38.9973 310.911 29.7143C315.072 20.4313 310.371 9.00684 310.371 8.37659C310.371 7.74633 309.871 7.00684 310.371 5.00684ZM314.014 9.11469L313.919 8.37659C313.919 7.91626 313.164 6.17175 314.014 5.89852C314.256 5.79559 317.072 4.93108 316.756 6.2956C315.998 7.82264 317.168 9.17523 314.871 10.5075C314.458 10.1973 314.014 9.11469 314.014 9.11469Z" stroke="black" stroke-width="0.5"/>
<ellipse cx="313.099" cy="4.4761" rx="0.228276" ry="0.468533" fill="black"/>
<path d="M317.328 4.47632C317.328 4.73508 317.226 4.94485 317.099 4.94485C316.973 4.94485 316.871 4.73508 316.871 4.47632C316.871 4.21755 316.973 4.00779 317.099 4.00779C317.226 4.00779 317.328 4.21755 317.328 4.47632Z" fill="black"/>
<path d="M322.677 38.0847C330.799 41.1312 338.656 46.5183 337.743 49.3295C336.83 52.1407 336.403 54.3517 330.666 53.6701C325.603 52.3229 318.568 44.5337 318.568 44.5337" stroke="black" stroke-width="0.5"/>
<path d="M526.764 57.2947C526.778 62.2426 527.374 66.5438 525.515 67.0952C523.656 67.6466 518.199 68.3016 518.563 68.9615C520.192 70.1885 520.707 70.3937 521.112 70.128C528.413 71.5355 528.818 70.8821 529.686 70.128C529.686 70.128 531.101 68.0709 530.613 67.0952C530.125 66.1195 529.686 64.5289 529.686 64.5289L530.233 58.2317C530.233 58.2317 528.787 57.9766 526.764 57.2947Z" fill="#FF6726" stroke="black" stroke-width="0.5"/>
<path d="M532.699 58.7004C532.713 63.6484 533.309 67.9496 531.45 68.501C529.591 69.0523 524.134 69.7074 524.498 70.3673C526.128 71.5943 526.642 71.7994 527.047 71.5338C534.348 72.9412 534.753 72.2878 535.621 71.5338C535.621 71.5338 537.036 69.4766 536.548 68.5009C536.06 67.5252 535.621 65.9347 535.621 65.9347L535.895 58.9347C535.895 58.9347 534.753 58.9347 532.699 58.7004Z" fill="#FF6726" stroke="black" stroke-width="0.5"/>
<path d="M518.919 8.37659L519.014 9.11469C519.014 9.11469 519.458 10.1973 519.871 10.5075C522.168 9.17523 520.998 7.82264 521.756 6.2956C522.072 4.93108 519.256 5.79559 519.014 5.89852C518.164 6.17175 518.919 7.91626 518.919 8.37659Z" fill="#FF8E26"/>
<path fill-rule="evenodd" clip-rule="evenodd" d="M515.371 5.00684C521.871 -5.99299 527.276 8.15153 525.871 17.5077C524.434 27.0762 525.622 29.4475 535.21 34.176C542.743 38.8182 545.447 41.8142 550.961 47.9977C552.305 48.8996 552.796 48.9293 555.07 51.5117C554.695 52.1474 554.358 52.3683 553.244 52.2145C556.234 53.7417 558.232 55.332 558.037 56.197C558.066 56.7409 557.53 56.752 555.526 56.197C558.382 57.683 558.846 58.2264 558.037 58.7739C557.225 58.6161 554.385 58.774 553.244 58.0527C552.102 57.3314 547.308 56.0928 543.656 58.0527C540.004 60.0126 525.839 59.2519 520.372 53.5462C514.905 47.8404 511.75 38.9973 515.911 29.7143C520.072 20.4313 515.371 9.00684 515.371 8.37659C515.371 7.74633 514.871 7.00684 515.371 5.00684ZM519.014 9.11469L518.919 8.37659C518.919 7.91626 518.164 6.17175 519.014 5.89852C519.256 5.79559 522.072 4.93108 521.756 6.2956C520.998 7.82264 522.168 9.17523 519.871 10.5075C519.458 10.1973 519.014 9.11469 519.014 9.11469Z" fill="#FFFCFA"/>
<path d="M518.919 8.37659L519.014 9.11469C519.014 9.11469 519.458 10.1973 519.871 10.5075C522.168 9.17523 520.998 7.82264 521.756 6.2956C522.072 4.93108 519.256 5.79559 519.014 5.89852C518.164 6.17175 518.919 7.91626 518.919 8.37659Z" stroke="black" stroke-width="0.5"/>
<path fill-rule="evenodd" clip-rule="evenodd" d="M515.371 5.00684C521.871 -5.99299 527.276 8.15153 525.871 17.5077C524.434 27.0762 525.622 29.4475 535.21 34.176C542.743 38.8182 545.447 41.8142 550.961 47.9977C552.305 48.8996 552.796 48.9293 555.07 51.5117C554.695 52.1474 554.358 52.3683 553.244 52.2145C556.234 53.7417 558.232 55.332 558.037 56.197C558.066 56.7409 557.53 56.752 555.526 56.197C558.382 57.683 558.846 58.2264 558.037 58.7739C557.225 58.6161 554.385 58.774 553.244 58.0527C552.102 57.3314 547.308 56.0928 543.656 58.0527C540.004 60.0126 525.839 59.2519 520.372 53.5462C514.905 47.8404 511.75 38.9973 515.911 29.7143C520.072 20.4313 515.371 9.00684 515.371 8.37659C515.371 7.74633 514.871 7.00684 515.371 5.00684ZM519.014 9.11469L518.919 8.37659C518.919 7.91626 518.164 6.17175 519.014 5.89852C519.256 5.79559 522.072 4.93108 521.756 6.2956C520.998 7.82264 522.168 9.17523 519.871 10.5075C519.458 10.1973 519.014 9.11469 519.014 9.11469Z" stroke="black" stroke-width="0.5"/>
<ellipse cx="518.099" cy="4.4761" rx="0.228276" ry="0.468533" fill="black"/>
<path d="M522.328 4.47632C522.328 4.73508 522.226 4.94485 522.099 4.94485C521.973 4.94485 521.871 4.73508 521.871 4.47632C521.871 4.21755 521.973 4.00779 522.099 4.00779C522.226 4.00779 522.328 4.21755 522.328 4.47632Z" fill="black"/>
<path d="M527.677 38.0847C535.799 41.1312 543.656 46.5183 542.743 49.3295C541.83 52.1407 541.403 54.3517 535.666 53.6701C530.603 52.3229 523.568 44.5337 523.568 44.5337" stroke="black" stroke-width="0.5"/>
<path d="M578.764 57.2947C578.778 62.2426 579.374 66.5438 577.515 67.0952C575.656 67.6466 570.199 68.3016 570.563 68.9615C572.192 70.1885 572.707 70.3937 573.112 70.128C580.413 71.5355 580.818 70.8821 581.686 70.128C581.686 70.128 583.101 68.0709 582.613 67.0952C582.125 66.1195 581.686 64.5289 581.686 64.5289L582.233 58.2317C582.233 58.2317 580.787 57.9766 578.764 57.2947Z" fill="#FF6726" stroke="black" stroke-width="0.5"/>
<path d="M584.699 58.7004C584.713 63.6484 585.309 67.9496 583.45 68.501C581.591 69.0523 576.134 69.7074 576.498 70.3673C578.128 71.5943 578.642 71.7994 579.047 71.5338C586.348 72.9412 586.753 72.2878 587.621 71.5338C587.621 71.5338 589.036 69.4766 588.548 68.5009C588.06 67.5252 587.621 65.9347 587.621 65.9347L587.895 58.9347C587.895 58.9347 586.753 58.9347 584.699 58.7004Z" fill="#FF6726" stroke="black" stroke-width="0.5"/>
<path d="M570.919 8.37659L571.014 9.11469C571.014 9.11469 571.458 10.1973 571.871 10.5075C574.168 9.17523 572.998 7.82264 573.756 6.2956C574.072 4.93108 571.256 5.79559 571.014 5.89852C570.164 6.17175 570.919 7.91626 570.919 8.37659Z" fill="#FF8E26"/>
<path fill-rule="evenodd" clip-rule="evenodd" d="M567.371 5.00684C573.871 -5.99299 579.276 8.15153 577.871 17.5077C576.434 27.0762 577.622 29.4475 587.21 34.176C594.743 38.8182 597.447 41.8142 602.961 47.9977C604.305 48.8996 604.796 48.9293 607.07 51.5117C606.695 52.1474 606.358 52.3683 605.244 52.2145C608.234 53.7417 610.232 55.332 610.037 56.197C610.066 56.7409 609.53 56.752 607.526 56.197C610.382 57.683 610.846 58.2264 610.037 58.7739C609.225 58.6161 606.385 58.774 605.244 58.0527C604.102 57.3314 599.308 56.0928 595.656 58.0527C592.004 60.0126 577.839 59.2519 572.372 53.5462C566.905 47.8404 563.75 38.9973 567.911 29.7143C572.072 20.4313 567.371 9.00684 567.371 8.37659C567.371 7.74633 566.871 7.00684 567.371 5.00684ZM571.014 9.11469L570.919 8.37659C570.919 7.91626 570.164 6.17175 571.014 5.89852C571.256 5.79559 574.072 4.93108 573.756 6.2956C572.998 7.82264 574.168 9.17523 571.871 10.5075C571.458 10.1973 571.014 9.11469 571.014 9.11469Z" fill="#FFFCFA"/>
<path d="M570.919 8.37659L571.014 9.11469C571.014 9.11469 571.458 10.1973 571.871 10.5075C574.168 9.17523 572.998 7.82264 573.756 6.2956C574.072 4.93108 571.256 5.79559 571.014 5.89852C570.164 6.17175 570.919 7.91626 570.919 8.37659Z" stroke="black" stroke-width="0.5"/>
<path fill-rule="evenodd" clip-rule="evenodd" d="M567.371 5.00684C573.871 -5.99299 579.276 8.15153 577.871 17.5077C576.434 27.0762 577.622 29.4475 587.21 34.176C594.743 38.8182 597.447 41.8142 602.961 47.9977C604.305 48.8996 604.796 48.9293 607.07 51.5117C606.695 52.1474 606.358 52.3683 605.244 52.2145C608.234 53.7417 610.232 55.332 610.037 56.197C610.066 56.7409 609.53 56.752 607.526 56.197C610.382 57.683 610.846 58.2264 610.037 58.7739C609.225 58.6161 606.385 58.774 605.244 58.0527C604.102 57.3314 599.308 56.0928 595.656 58.0527C592.004 60.0126 577.839 59.2519 572.372 53.5462C566.905 47.8404 563.75 38.9973 567.911 29.7143C572.072 20.4313 567.371 9.00684 567.371 8.37659C567.371 7.74633 566.871 7.00684 567.371 5.00684ZM571.014 9.11469L570.919 8.37659C570.919 7.91626 570.164 6.17175 571.014 5.89852C571.256 5.79559 574.072 4.93108 573.756 6.2956C572.998 7.82264 574.168 9.17523 571.871 10.5075C571.458 10.1973 571.014 9.11469 571.014 9.11469Z" stroke="black" stroke-width="0.5"/>
<ellipse cx="570.099" cy="4.4761" rx="0.228276" ry="0.468533" fill="black"/>
<path d="M574.328 4.47632C574.328 4.73508 574.226 4.94485 574.099 4.94485C573.973 4.94485 573.871 4.73508 573.871 4.47632C573.871 4.21755 573.973 4.00779 574.099 4.00779C574.226 4.00779 574.328 4.21755 574.328 4.47632Z" fill="black"/>
<path d="M579.677 38.0847C587.799 41.1312 595.656 46.5183 594.743 49.3295C593.83 52.1407 593.403 54.3517 587.666 53.6701C582.603 52.3229 575.568 44.5337 575.568 44.5337" stroke="black" stroke-width="0.5"/>
<path d="M424.764 57.2947C424.778 62.2426 425.374 66.5438 423.515 67.0952C421.656 67.6466 416.199 68.3016 416.563 68.9615C418.192 70.1885 418.707 70.3937 419.112 70.128C426.413 71.5355 426.818 70.8821 427.686 70.128C427.686 70.128 429.101 68.0709 428.613 67.0952C428.125 66.1195 427.686 64.5289 427.686 64.5289L428.233 58.2317C428.233 58.2317 426.787 57.9766 424.764 57.2947Z" fill="#FF6726" stroke="black" stroke-width="0.5"/>
<path d="M430.699 58.7004C430.713 63.6484 431.309 67.9496 429.45 68.501C427.591 69.0523 422.134 69.7074 422.498 70.3673C424.128 71.5943 424.642 71.7994 425.047 71.5338C432.348 72.9412 432.753 72.2878 433.621 71.5338C433.621 71.5338 435.036 69.4766 434.548 68.5009C434.06 67.5252 433.621 65.9347 433.621 65.9347L433.895 58.9347C433.895 58.9347 432.753 58.9347 430.699 58.7004Z" fill="#FF6726" stroke="black" stroke-width="0.5"/>
<path d="M416.919 8.37659L417.014 9.11469C417.014 9.11469 417.458 10.1973 417.871 10.5075C420.168 9.17523 418.998 7.82264 419.756 6.2956C420.072 4.93108 417.256 5.79559 417.014 5.89852C416.164 6.17175 416.919 7.91626 416.919 8.37659Z" fill="#FF8E26"/>
<path fill-rule="evenodd" clip-rule="evenodd" d="M413.371 5.00684C419.871 -5.99299 425.276 8.15153 423.871 17.5077C422.434 27.0762 423.622 29.4475 433.21 34.176C440.743 38.8182 443.447 41.8142 448.961 47.9977C450.305 48.8996 450.796 48.9293 453.07 51.5117C452.695 52.1474 452.358 52.3683 451.244 52.2145C454.234 53.7417 456.232 55.332 456.037 56.197C456.066 56.7409 455.53 56.752 453.526 56.197C456.382 57.683 456.846 58.2264 456.037 58.7739C455.225 58.6161 452.385 58.774 451.244 58.0527C450.102 57.3314 445.308 56.0928 441.656 58.0527C438.004 60.0126 423.839 59.2519 418.372 53.5462C412.905 47.8404 409.75 38.9973 413.911 29.7143C418.072 20.4313 413.371 9.00684 413.371 8.37659C413.371 7.74633 412.871 7.00684 413.371 5.00684ZM417.014 9.11469L416.919 8.37659C416.919 7.91626 416.164 6.17175 417.014 5.89852C417.256 5.79559 420.072 4.93108 419.756 6.2956C418.998 7.82264 420.168 9.17523 417.871 10.5075C417.458 10.1973 417.014 9.11469 417.014 9.11469Z" fill="#FFFCFA"/>
<path d="M416.919 8.37659L417.014 9.11469C417.014 9.11469 417.458 10.1973 417.871 10.5075C420.168 9.17523 418.998 7.82264 419.756 6.2956C420.072 4.93108 417.256 5.79559 417.014 5.89852C416.164 6.17175 416.919 7.91626 416.919 8.37659Z" stroke="black" stroke-width="0.5"/>
<path fill-rule="evenodd" clip-rule="evenodd" d="M413.371 5.00684C419.871 -5.99299 425.276 8.15153 423.871 17.5077C422.434 27.0762 423.622 29.4475 433.21 34.176C440.743 38.8182 443.447 41.8142 448.961 47.9977C450.305 48.8996 450.796 48.9293 453.07 51.5117C452.695 52.1474 452.358 52.3683 451.244 52.2145C454.234 53.7417 456.232 55.332 456.037 56.197C456.066 56.7409 455.53 56.752 453.526 56.197C456.382 57.683 456.846 58.2264 456.037 58.7739C455.225 58.6161 452.385 58.774 451.244 58.0527C450.102 57.3314 445.308 56.0928 441.656 58.0527C438.004 60.0126 423.839 59.2519 418.372 53.5462C412.905 47.8404 409.75 38.9973 413.911 29.7143C418.072 20.4313 413.371 9.00684 413.371 8.37659C413.371 7.74633 412.871 7.00684 413.371 5.00684ZM417.014 9.11469L416.919 8.37659C416.919 7.91626 416.164 6.17175 417.014 5.89852C417.256 5.79559 420.072 4.93108 419.756 6.2956C418.998 7.82264 420.168 9.17523 417.871 10.5075C417.458 10.1973 417.014 9.11469 417.014 9.11469Z" stroke="black" stroke-width="0.5"/>
<ellipse cx="416.099" cy="4.4761" rx="0.228276" ry="0.468533" fill="black"/>
<path d="M420.328 4.47632C420.328 4.73508 420.226 4.94485 420.099 4.94485C419.973 4.94485 419.871 4.73508 419.871 4.47632C419.871 4.21755 419.973 4.00779 420.099 4.00779C420.226 4.00779 420.328 4.21755 420.328 4.47632Z" fill="black"/>
<path d="M425.677 38.0847C433.799 41.1312 441.656 46.5183 440.743 49.3295C439.83 52.1407 439.403 54.3517 433.666 53.6701C428.603 52.3229 421.568 44.5337 421.568 44.5337" stroke="black" stroke-width="0.5"/>
</svg>
